<svg viewBox="0 0 1024 1024" xmlns="http://www.w3.org/2000/svg" width="200" height="200"><path d="M0 509.44a512 509.44 0 1 0 1024 0 512 509.44 0 1 0-1024 0z" fill="#0AE"/><path d="M0 509.44a512 509.44 0 1 0 1024 0 512 509.44 0 1 0-1024 0z" fill="#108EE9"/><path d="M1015.467 788.48v69.12S745.813 723.627 606.72 656.213c-43.52 49.494-108.373 99.84-181.76 121.174-46.08 13.653-87.893 18.773-130.56 10.24-42.667-8.534-74.24-29.014-93.013-48.64-9.387-10.24-20.48-23.04-28.16-38.4.853 1.706.853 3.413.853 3.413s-4.267-7.68-7.68-19.627c-1.707-5.973-2.56-11.946-3.413-18.773 0-4.267-.854-8.533 0-13.653 0-7.68 0-16.214 1.706-24.747 4.267-20.48 12.8-45.227 35.84-67.413 50.347-49.494 117.76-52.054 152.747-52.054 52.053 0 141.653 23.04 217.6 49.494 21.333-44.374 34.133-92.16 43.52-123.734H298.667V399.36H460.8v-68.267H264.533V296.96H460.8v-68.267c0-9.386 1.707-17.066 17.067-17.066h76.8v84.48H768v34.133H554.667v68.267h170.666s-17.066 94.72-70.826 188.586c144.213 51.2 360.96 136.534 360.96 136.534v64.853zm-799.574-85.333c29.867 29.866 75.094 38.4 93.867 40.106 52.907 3.414 109.227-22.186 151.893-52.053 17.067-11.947 45.227-34.987 72.534-71.68-61.44-31.573-137.387-65.707-219.307-62.293-41.813 1.706-71.68 10.24-93.013 22.186-12.8 10.24-25.6 24.747-29.867 42.667-5.12 24.747-.853 56.32 23.893 81.067z" fill="#FFF"/></svg>