<svg viewBox="0 0 1024 1024" xmlns="http://www.w3.org/2000/svg" width="200" height="200"><path d="M512 0C229.222 0 0 229.222 0 512s229.222 512 512 512 512-229.222 512-512S794.778 0 512 0zm237.261 443.853c-1.024 4.454-3.687 11.059-7.373 18.944h.102l-.409.768c-21.504 45.977-77.619 136.192-77.619 136.192l-.256-.615-16.384 28.57h79.001L575.386 828.365l34.304-136.499h-62.208l21.606-90.266c-17.459 4.198-38.144 9.984-62.618 17.869 0 0-33.075 19.353-95.334-37.274 0 0-41.984-37.017-17.613-46.233 10.343-3.943 50.227-8.96 81.613-13.159 42.496-5.734 68.557-8.806 68.557-8.806s-130.816 1.945-161.843-2.919c-31.028-4.864-70.4-56.678-78.797-102.195 0 0-12.954-24.985 27.904-13.158 40.857 11.827 209.971 46.08 209.971 46.08s-219.904-67.431-234.598-83.917c-14.644-16.384-43.06-89.805-39.373-134.861 0 0 1.587-11.264 13.158-8.192 0 0 162.611 74.24 273.767 114.944 111.206 40.704 207.872 61.389 195.379 114.074z" fill="#3AA2EB"/></svg>