<svg viewBox="0 0 1028 1024" xmlns="http://www.w3.org/2000/svg" width="128.5" height="128"><path d="M316.806 841.07q0-9.198 9.198-9.198t9.198 9.198-9.198 9.197-9.198-9.197zm-41.9-10.22q0-9.197 9.198-9.197 10.22 0 10.22 9.197 0 10.22-10.22 10.22-9.198 0-9.198-10.22zM509.956 0Q616.24 0 709.75 40.367t163.001 109.86T982.61 313.23t40.368 199.792q0 82.778-25.038 158.914t-69.493 138.986-106.794 110.371-135.92 74.092q-11.242 2.044-25.55 1.022t-17.373-18.395q-2.044-12.263-3.576-32.703t-2.044-41.9-1.022-40.878-.511-28.615-3.577-23.505-8.176-27.593-9.197-24.016-6.643-13.796q-2.044-2.044 14.307-4.599t41.39-9.708 54.674-20.44 55.186-35.257 42.41-54.164 16.863-78.18q0-69.492-8.175-108.327t-17.374-58.251q-11.241-22.483-25.549-28.615 6.132-33.724 9.198-61.317 2.044-23.505.511-44.966t-12.774-27.593q-11.242-5.11-33.214 2.044t-45.477 18.395q-26.57 13.285-57.23 32.703-15.329-5.11-33.724-9.198-16.351-4.088-38.835-7.154t-50.075-3.066-52.631 3.066-44.455 6.132q-22.483 4.088-41.9 9.198-30.66-17.374-57.23-29.637-23.505-11.242-45.988-18.395t-32.703-3.066q-11.241 5.11-13.796 26.06t-1.533 45.477q1.022 28.614 5.11 63.361-14.307 15.33-25.549 36.79-10.22 18.396-17.884 44.966t-7.665 59.274q0 47.01 9.709 82.778t26.06 61.829 37.301 43.944 42.411 29.126q51.098 26.57 116.503 30.658-8.176 9.198-14.307 17.374-5.11 7.153-9.198 13.796t-4.088 9.708-.51 7.665-1.534 9.709l-2.044 10.22q-10.22 4.087-21.46 7.153-9.198 3.066-20.44 5.11t-22.483 2.044T292.28 809.9t-33.213-27.082-30.659-30.147-19.928-20.95q-6.132-5.11-16.351-8.687t-20.44-5.62-18.395-2.556-11.241.511q-6.132 3.066-9.198 8.687t5.11 8.687q4.088 2.043 11.753 7.664t15.84 13.286 15.33 15.329 10.219 12.774 9.197 22.483 19.929 35.769 36.79 32.702 61.828 14.308q26.571 0 40.368-.511t20.95-1.533v78.69q0 6.132-1.533 13.797t-5.621 13.285-11.242 8.176-18.395-.51q-2.044-1.023-6.131-1.023-74.603-26.57-136.943-74.092T92.487 812.455 21.461 672.958-4.088 513.022q0-106.283 40.367-199.792t109.86-163.002 163.514-109.86T509.956 0zM380.168 878.882q4.087 1.022 6.131 2.044 5.11 3.066-6.131 4.088v-6.132zm-20.44-44.966q0-10.22 9.198-10.22t9.198 10.22q0 9.198-9.198 9.198t-9.197-9.198zM177.82 731.721q0-6.132 7.154-6.132t7.154 6.132q0 7.153-7.154 7.153t-7.154-7.153zm68.471 77.668q0-9.197 9.198-9.197t9.198 9.197q0 10.22-9.198 10.22t-9.198-10.22zm-38.834-62.34q7.154 0 7.154 7.155t-7.154 7.153-7.154-7.153 7.154-7.154zm10.22 33.725q0-9.197 9.197-9.197t9.198 9.197q0 10.22-9.198 10.22t-9.197-10.22z" fill="#2c2c2c"/></svg>