<svg viewBox="0 0 1024 1024" xmlns="http://www.w3.org/2000/svg" width="200" height="200"><path d="M405.504 243.2c-50.688-1.536-95.232 44.544-86.528 110.592 8.704 66.048 56.832 110.592 108.032 112.128 50.688 1.536 79.872-39.424 71.168-105.472-8.704-66.048-41.984-115.712-92.672-117.248zm-130.56 477.696c0 52.736 54.272 95.744 129.024 95.744 105.472 0 142.336-40.448 142.336-93.184 0-6.144 0-12.8-2.56-18.432-25.6-63.488-107.52-63.488-134.656-63.488-73.728 0-134.144 27.648-134.144 79.36z" fill="#EB5E4B"/><path d="M514.048 4.096c-281.6 0-509.952 228.352-509.952 509.952S232.448 1024 514.048 1024 1024 795.648 1024 514.048 795.648 4.096 514.048 4.096zm67.584 348.672c0 43.52-24.064 78.848-58.88 105.984-33.792 26.112-39.936 36.864-39.936 59.392 0 18.944 39.936 47.104 58.368 60.928 64 48.128 76.288 78.336 77.312 138.24 1.024 79.872-80.896 148.992-212.48 148.992-115.2 0-211.968-52.224-211.968-126.976 0-113.152 79.872-149.504 195.584-149.504 12.8 0 24.064-.512 35.84-.512C409.6 573.952 396.8 560.64 396.8 537.6c0-13.824 4.608-27.136 10.752-38.4-6.144.512-12.8 1.024-19.456 1.024-94.72 0-150.016-66.56-150.016-149.504 0-81.408 83.968-154.624 184.832-154.624h198.656l-44.544 45.568H524.8c37.376 19.968 56.832 62.976 56.832 111.104zm282.624-30.208h-95.744v96.256h-31.744V322.56h-95.232v-31.232h95.232v-95.744h31.744v95.744h95.744v31.232z" fill="#EB5E4B"/></svg>