<svg viewBox="0 0 1024 1024" xmlns="http://www.w3.org/2000/svg" width="128" height="128"><path d="M0 512a512 512 0 1 0 1024 0A512 512 0 1 0 0 512z" fill="#2995CC"/><path d="M464 493.032V259.064c-80 12.648-145.072 25.248-224 37.888v198.912c78.928-.92 144-1.904 224-2.832zm32-.464c80-.96 177.072-1.872 256-2.84V215.04c-78.928 12.648-176 25.24-256 37.896v239.632zm3.2 38.872c-.032 79.872 0 159.752 0 239.632C578.12 783.72 673.056 796.32 752 808.96V534.272c-78.928-.936-173.856-1.888-252.8-2.832zm-35.2-.472c-80-.952-145.072-1.888-224-2.84V727.04c78.928 12.656 144 25.24 224 37.888v-233.96z" fill="#F5F5F5"/></svg>