<svg viewBox="0 0 1025 1024" xmlns="http://www.w3.org/2000/svg" width="200.195" height="200"><path d="M512.783 2.044C230.578 2.044 1.805 230.817 1.805 513.022S230.578 1024 512.783 1024s510.978-228.773 510.978-510.978S794.988 2.044 512.783 2.044zM254.982 267.608c35.913 0 65.03 26.026 65.03 58.11 0 32.111-29.116 58.107-65.03 58.107-35.897 0-65.013-25.996-65.013-58.106 0-32.085 29.116-58.111 65.013-58.111zm54.334 349.25c-17.216 53.06-12.898 33.34-81.054 180.928l-98.797-61.385s110.086-99.85 132.79-145.484c23.914-48.109-26.443-73.853-26.443-73.853l-75.68-46.93 40.845-62.829c57.186 42.237 61.355 45.797 99.841 84.256 29.814 29.794 26.088 71.11 8.498 125.296zm536.663 68.78C826.783 865.699 591.784 798.79 591.784 798.79l12.8-51.49 54.339 11.663c100.735 6.366 90.834-81.271 90.834-81.271v-254.94c.885-96.643-91.29-106.799-256.6-47.81l38.476 10.384c-3.33 11.34-15.857 29.045-31.774 48.322h221.22v44.608H596.582v55.757h123.98v44.617h-123.98v93.522c18.506-6.149 35.867-14.52 50.958-25.621l-10.986-40.818 58.557-18.114 48.65 119.003-72.035 29.768-12.778-47.444c-32.107 24.638-99.028 60.155-215.842 57-124.713 3.198-92.73-140.212-92.73-140.212l3.214-1.597h87.595c-.549 18.382-8.15 48.487 2.249 64.821 8.538 13.4 30.386 15.72 44.429 16.436 1.588.103 3.202.115 4.803.179V578.632H365.502v-44.617h127.165v-55.757h-32.609c-28.593 30.259-54.734 55.246-54.734 55.246l-38.38-33.448c27.22-28.572 54.527-73.845 71.325-104.09-13.665 5.565-27.73 11.513-42.215 17.832-14.29 17.859-30.522 36.284-48.79 54.39.746 1.068-62.646-35.382-62.646-35.382 65.537-55.764 102.307-175.261 102.307-175.261l91.125 25.476s-7.546 17.629-23.16 44.685c365.064-103.034 386.295 63.156 386.295 63.156s23.998 114.725 4.794 294.777z" fill="#ff440b"/></svg>