<svg viewBox="0 0 1024 1024" xmlns="http://www.w3.org/2000/svg" width="200" height="200"><path d="M895.993 831.993a64 64 0 0 1-64-64V383.997a64 64 0 1 1 128 0v383.996a64 64 0 0 1-64 64zm-609.21-679.034a327.677 327.677 0 0 1 66.366-51.776l-48.64-76.671c-1.28-1.344-1.343-3.712-.447-7.232.96-3.584 4.288-7.168 10.048-11.008C319.23 1.728 323.966-.32 328.446 0c4.48.32 7.36 1.088 8.64 2.368l49.6 78.655c17.791-8.384 36.607-14.656 56.319-19.2 19.776-4.48 40.127 57.28 61.12 57.28 43.327 0 83.646-54.976 121.214-37.248L675.9 2.24c1.28-1.28 3.648-1.92 7.104-1.92 3.52 0 8.768 1.92 15.807 5.76 6.4 3.2 10.048 6.08 11.008 8.704.96 2.56.768 4.48-.448 5.76l-49.023 77.695c11.392 5.184 23.36 12.096 35.711 21.12 12.352 8.896 24.32 19.52 35.776 31.616a231.68 231.68 0 0 1 30.08 39.743c8.64 14.336 14.848 47.552 18.56 63.552h-541.82c10.112-33.856 26.176-79.68 48.128-101.311zM127.998 831.993a64 64 0 0 1-63.999-64V383.997a64 64 0 1 1 127.999 0v383.996a64 64 0 0 1-64 64zm639.547-39.936c0 14.08-4.544 15.936-13.824 25.472s-18.496 14.4-31.808 14.4H704.57v144.126c0 12.8-4.608 24-13.887 33.536a45.376 45.376 0 0 1-33.92 14.4h-33.664a44.416 44.416 0 0 1-32.96-14.336 47.168 47.168 0 0 1-13.887-33.536V831.993H446.78v144.126c0 12.8-4.544 24-13.888 33.536a45.184 45.184 0 0 1-33.856 14.336H367.42a44.544 44.544 0 0 1-32.96-14.336 47.104 47.104 0 0 1-13.823-33.536V831.993h-18.496a45.632 45.632 0 0 1-33.92-14.4 49.28 49.28 0 0 1-13.888-35.456V320.701H768.57l-1.024 471.356z" fill="#1EA983"/></svg>