<svg viewBox="0 0 1024 1024" xmlns="http://www.w3.org/2000/svg" width="200" height="200"><path d="M512.01 84.132a174.06 174.06 0 0 0-174.06 174.06 174.06 174.06 0 0 0 50.638 122.613L253.235 594.872a174.06 174.06 0 0 0-32.512-3.154 174.06 174.06 0 0 0-174.07 174.06 174.06 174.06 0 0 0 174.06 174.05 174.06 174.06 0 0 0 174.06-174.06 174.06 174.06 0 0 0-72.326-141.036L451.226 421.06a174.06 174.06 0 0 0 60.784 11.192 174.06 174.06 0 0 0 63.017-11.827l128.38 203.059a174.06 174.06 0 0 0-74.18 142.285 174.06 174.06 0 0 0 174.06 174.08 174.06 174.06 0 0 0 174.06-174.08 174.06 174.06 0 0 0-174.06-174.06 174.06 174.06 0 0 0-30.208 2.683l-136.11-215.286a174.06 174.06 0 0 0 49.09-120.903A174.06 174.06 0 0 0 512 84.142z" fill="#42A5F5"/></svg>