<svg viewBox="0 0 1024 1024" xmlns="http://www.w3.org/2000/svg" width="200" height="200"><path d="M252.97 36.565a217.899 217.899 0 0 1 217.9 217.899v217.899h-217.9a217.899 217.899 0 0 1 0-435.798z" fill="#4B92F9"/><path d="M35.03 769.536a217.899 217.899 0 0 1 217.94-217.899h217.9v217.899a217.899 217.899 0 1 1-435.798 0z" fill="#F45747"/><path d="M768 987.435a217.899 217.899 0 0 1-217.899-217.899V551.637H768a217.899 217.899 0 1 1 0 435.798z" fill="#29CC76"/><path d="M985.899 254.464A217.899 217.899 0 0 1 768 472.363H550.101V254.464a217.899 217.899 0 1 1 435.798 0z" fill="#F2A600"/></svg>