<?xml version="1.0" standalone="no"?><!DOCTYPE svg PUBLIC "-//W3C//DTD SVG 1.1//EN" "http://www.w3.org/Graphics/SVG/1.1/DTD/svg11.dtd"><svg t="1622723585925" class="icon" viewBox="0 0 1024 1024" version="1.1" xmlns="http://www.w3.org/2000/svg" p-id="1210" xmlns:xlink="http://www.w3.org/1999/xlink" width="200" height="200"><defs><style type="text/css"></style></defs><path d="M867.648 648.48l33.216 55.744a6.4 6.4 0 0 1-2.24 8.768l-398.912 237.76-398.944-237.76a6.4 6.4 0 0 1-2.24-8.768l33.216-55.744a6.4 6.4 0 0 1 8.8-2.24l359.136 214.048 359.2-214.016a6.4 6.4 0 0 1 8.768 2.24z m0-155.392l33.216 55.744a6.4 6.4 0 0 1-2.24 8.8l-398.912 237.76-398.944-237.76a6.4 6.4 0 0 1-2.24-8.8l33.216-55.744a6.4 6.4 0 0 1 8.8-2.24l359.136 214.08 359.2-214.08a6.4 6.4 0 0 1 8.768 2.24zM476.16 105.856c22.08-13.12 49.536-13.12 71.616 0l357.44 213.024a46.624 46.624 0 0 1 0 80.096l-357.44 212.992c-22.08 13.152-49.536 13.152-71.616 0l-357.44-212.992a46.624 46.624 0 0 1 0-80.096zM512 174.976l-308.64 183.936L512 542.848l308.64-183.936-308.64-183.936z" fill="#1afa29" p-id="1211"></path></svg>