<svg viewBox="0 0 1063 1024" xmlns="http://www.w3.org/2000/svg" width="207.617" height="200"><path d="M292.43 741.06a40.172 40.172 0 0 0 39.858 40.41h398.77c22.055 0 39.896-18.117 39.896-40.41a40.172 40.172 0 0 0-39.897-40.447H332.288c-22.055 0-39.857 18.117-39.857 40.448zm0-161.673a40.172 40.172 0 0 0 39.858 40.409h398.77c22.055 0 39.896-18.117 39.896-40.409a40.172 40.172 0 0 0-39.897-40.448H332.288c-22.055 0-39.857 18.117-39.857 40.448zm186.093-420.155c0-28.436 23.788-51.436 53.17-51.436 29.38 0 53.169 23 53.169 51.436V298.85c0 28.436-23.789 51.476-53.17 51.476-29.38 0-53.169-23.04-53.169-51.476V159.232zm-79.754-22.055v159.232c1.26 74.633 60.298 134.734 132.923 134.734s131.663-60.1 132.923-134.695V137.177C664.615 61.36 605.145 0 531.692 0 458.28 0 398.77 61.44 398.77 137.177zM170.142 296.409h228.627V215.59H106.34C47.615 215.591 0 263.838 0 323.348v592.817C0 975.754 47.616 1024 106.338 1024h850.708c58.723 0 106.339-48.246 106.339-107.796V323.387c0-59.55-47.616-107.796-106.339-107.796h-292.43v80.818h228.627c49.9 0 90.388 41.038 90.388 91.648v463.438c0 50.61-40.488 91.609-90.388 91.609H170.142c-49.9 0-90.388-41-90.388-91.609V388.057c0-50.61 40.487-91.648 90.388-91.648z" fill="#1082FF"/></svg>