<svg viewBox="0 0 1024 1024" xmlns="http://www.w3.org/2000/svg" width="200" height="200"><path d="M643.84 568.32c-9.44-13.6-23.2-23.68-39.04-28.48l-4.64-1.44c-17.92-4.32-36.32-6.56-54.72-6.72v-.16H419.68v168.8h125.76c13.6.32 27.04-.48 40.48-2.24 4.8-.8 9.6-1.92 14.24-3.36 8.16-2.24 16-5.6 23.36-10.08 10.56-6.72 19.04-16.16 24.8-27.2 6.72-12.8 10.08-27.04 9.76-41.44.16-16.96-4.64-33.6-14.24-47.68z" fill="#FE881F"/><path d="M512 0C229.28 0 0 229.28 0 512s229.28 512 512 512 512-229.28 512-512S794.72 0 512 0zm213.28 616c.16 22.08-4.96 44-14.56 63.84-8.16 17.92-20.64 33.44-36 45.6-16.16 11.68-34.4 20-53.76 24.64-6.88 1.76-13.76 3.2-20.8 4.16v58.88h-54.72V758.4H468.8v54.72h-54.72V758.4h-59.52V267.52h59.52v-56.64h54.72v56.64h69.92l6.72.16v-56.8H600v62.4c9.92 1.92 19.52 4.8 28.8 8.48 22.08 9.44 40.64 25.44 53.28 45.92 12.48 19.36 19.04 41.76 19.2 64.8 0 20.96-5.92 41.44-16.96 59.2-12.48 19.68-30.4 35.52-51.52 45.44 26.88 7.04 50.72 22.56 67.84 44.32l.48.16a120.112 120.112 0 0 1 24.16 74.4z" fill="#FE881F"/><path d="M468.64 473.6h76.64c14.24-.16 28.48-1.92 42.24-5.44 4.32-1.28 8.48-3.04 12.48-4.96 9.92-4.48 18.4-11.52 24.8-20.32 8.64-12.48 13.12-27.52 12.48-42.88.32-15.2-3.68-30.08-11.68-43.04-6.08-9.76-15.04-17.28-25.6-21.92-2.56-1.28-5.12-2.24-7.84-3.04-15.36-4-31.04-6.08-47.04-6.4-8.48-.48-17.6-.48-27.68-.48h-98.08v148.32l49.28.16z" fill="#FE881F"/></svg>