<svg viewBox="0 0 1024 1024" xmlns="http://www.w3.org/2000/svg" width="200" height="200"><path d="M493.381 0h33.439a559.907 559.907 0 0 1 173.44 35.378 514.64 514.64 0 0 1 323.874 466.14v18.862a505.83 505.83 0 0 1-54.32 220.595 494.001 494.001 0 0 1-142.079 172.741 512.754 512.754 0 0 1-206.88 97.809A747.091 747.091 0 0 1 528.92 1024h-33.384a588.2 588.2 0 0 1-121.25-18.861 506.907 506.907 0 0 1-246.57-156.09 494.136 494.136 0 0 1-102.39-178.965A591.486 591.486 0 0 1 .244 522.32v-18.861A506.557 506.557 0 0 1 303.288 47.853 435.882 435.882 0 0 1 493.38 0zM395.17 108.21a453.18 453.18 0 0 0-71.053 137.416c25.085 6.251 48.069 8.326 73.127 12.476a682.478 682.478 0 0 0 91.935 6.25V41.63a175.49 175.49 0 0 0-94.036 66.607zm135.935 156.089a798.798 798.798 0 0 0 123.298-10.4 296.902 296.902 0 0 0 41.79-8.327 452.803 452.803 0 0 0-87.757-158.164 154.015 154.015 0 0 0-77.304-45.806v222.67zM355.587 66.607a466.14 466.14 0 0 0-190.148 124.86 501.168 501.168 0 0 0 121.25 45.807A440.462 440.462 0 0 1 389.08 58.308a157.033 157.033 0 0 0-33.438 8.326zm280.008-10.4a362.135 362.135 0 0 1 27.16 31.228 548.213 548.213 0 0 1 75.229 147.764 536.196 536.196 0 0 0 121.25-45.806 502.22 502.22 0 0 0-223.64-133.187zM138.199 222.67a478.4 478.4 0 0 0-98.213 266.373h204.778a929.317 929.317 0 0 1 29.262-214.209 509.79 509.79 0 0 1-135.827-52.03zm610.158 52.164a914.12 914.12 0 0 1 29.262 214.344h204.779a478.4 478.4 0 0 0-98.213-266.374 631.068 631.068 0 0 1-135.828 52.03zm-461.802 214.21h204.779V303.826a861.848 861.848 0 0 1-177.619-20.802 871.629 871.629 0 0 0-27.16 206.018zM531.023 305.82v185.217H735.8a957.851 957.851 0 0 0-27.16-203.943 1252.92 1252.92 0 0 1-177.618 18.861zM39.986 530.807a478.4 478.4 0 0 0 98.213 266.374 631.04 631.04 0 0 1 135.827-52.03 914.12 914.12 0 0 1-29.262-214.344zm246.57 0a957.878 957.878 0 0 0 27.16 203.943 1009.746 1009.746 0 0 1 177.618-20.8V528.597c-68.951 2.075-137.903 2.075-204.779 2.075zm244.467 0v185.217a1033.377 1033.377 0 0 1 177.618 20.801 840.831 840.831 0 0 0 27.16-203.943c-68.95-2.075-135.827-2.075-204.778-2.075zm246.57 0a929.317 929.317 0 0 1-29.262 214.344 591.81 591.81 0 0 1 135.827 52.03 478.4 478.4 0 0 0 98.213-266.374zM326.324 774.17a452.803 452.803 0 0 0 87.705 158.11 154.015 154.015 0 0 0 77.304 45.807v-222.67a730.197 730.197 0 0 0-165.09 18.861zm204.779-18.86v222.777a161.452 161.452 0 0 0 94.036-66.607 453.207 453.207 0 0 0 71.053-137.417c-25.086-6.252-50.144-8.326-75.23-12.476a629.963 629.963 0 0 0-89.86-6.25zm-365.665 72.75a451.456 451.456 0 0 0 221.485 133.186 465.71 465.71 0 0 1-102.39-178.965 638.585 638.585 0 0 0-119.095 45.805zm570.443-45.806a440.462 440.462 0 0 1-102.39 178.965 473.954 473.954 0 0 0 221.485-133.187 455.901 455.901 0 0 0-119.095-45.805z" fill="#4B53F4"/></svg>