<svg viewBox="0 0 1024 1024" xmlns="http://www.w3.org/2000/svg" width="200" height="200"><path d="M533.049 1.593c113.323 0 207.53 28.672 281.259 88.747 70.997 57.344 114.688 136.533 129.706 234.837H799.29c-16.384-65.536-47.787-114.688-94.208-146.09s-103.765-46.422-174.763-46.422c-105.13 0-184.32 35.499-237.568 107.861-50.517 65.536-75.093 155.648-75.093 268.97 0 117.42 24.576 207.532 73.728 271.702 51.883 68.267 132.437 102.4 241.664 102.4 70.997 0 131.072-17.75 177.493-53.248 49.152-38.23 83.286-95.573 102.4-172.032h144.726c-21.846 113.323-72.363 202.07-152.918 266.24-75.093 60.075-165.205 90.112-270.336 90.112-159.744 0-279.893-51.882-360.448-152.917-70.997-87.381-105.13-204.8-105.13-352.256 0-144.725 35.498-262.144 109.226-353.621C259.982 52.11 377.401 1.593 533.05 1.593z" fill="#1991EB"/></svg>