<svg viewBox="0 0 1058 1024" xmlns="http://www.w3.org/2000/svg" width="206.641" height="200"><path d="m149.777 317.679 36.079-36.079 23.21-23.177 23.177 23.177 166.298 166.298h46.387v-46.353L278.63 235.247l-23.21-23.245 23.21-23.176 36.045-36.045H149.777z" fill="#A4CB3E"/><path d="M444.928 355.157v-202.41h-83.831l-59.29 59.29 143.121 143.12zm-295.15 8.943v83.832h202.41L209.067 304.81l-59.29 59.29z" fill="#A6CD3C"/><path d="m765.61 212.036-23.21 23.21-166.332 166.299v46.353h46.387L788.787 281.6l23.21-23.177 23.177 23.177 36.045 36.079V152.78H706.321l36.079 36.045z" fill="#92307F"/><path d="M393.933 119.979h83.797v267.98l32.768 32.803 32.802-32.803V119.98h83.832L510.498 3.345z" fill="#F6AB46"/><path d="M668.843 447.898h202.376V364.1l-59.29-59.29z" fill="#A3248D"/><path d="M116.975 546.304h267.98l32.803-32.802-32.802-32.802H116.975v-83.832L.34 513.502l116.634 116.633z" fill="#A6218E"/><path d="M576.068 671.846v202.411h83.866l59.255-59.29-143.12-143.12zm92.775-92.774L811.93 722.193l59.29-59.29v-83.831H668.842z" fill="#FFA64C"/><path d="m576.068 355.157 143.121-143.12-59.255-59.256h-83.866z" fill="#A3248D"/><path d="m871.185 709.325-36.045 36.079-23.21 23.176-23.177-23.176-166.298-166.332h-46.387v46.387L742.4 791.791l23.21 23.176-23.21 23.211-36.079 36.045h164.864z" fill="#FFA648"/><path d="M904.021 480.7h-267.98l-32.768 32.802 32.768 32.802h267.98v83.831l116.634-116.633L904.02 396.868z" fill="#2B30A5"/><path d="m209.067 722.193 143.087-143.121H149.777v83.831z" fill="#2F3597"/><path d="m255.42 814.933 23.176-23.21 166.298-166.264v-46.387H398.54L232.209 745.404l-23.176 23.176-23.177-23.176-36.079-36.08v164.899H314.71l-36.079-36.079-23.21-23.21zm371.712 92.092H543.3V639.01l-32.802-32.802-32.768 32.802v268.015H393.9l116.633 116.6 116.6-116.6z" fill="#2F3291"/><path d="M444.928 671.846 301.807 814.933l59.29 59.29h83.831z" fill="#2F3291"/></svg>