<svg viewBox="0 0 1024 1024" xmlns="http://www.w3.org/2000/svg" width="200" height="200"><path d="M573.3 733 445.1 955.2C229.3 922.9 64 736.8 64 512c0-79.8 20.9-154.8 57.5-219.7l183 316.9c36.7 78.1 115.9 132.2 207.6 132.2 21.2 0 41.6-3 61.2-8.4z" fill="#1AA260"/><path d="M349.2 512c0-89.8 73-162.8 162.7-162.8 89.8 0 162.8 73 162.8 162.8s-73 162.8-162.8 162.8-162.7-73-162.7-162.8z" fill="#4C8CF5"/><path d="M672.4 348.3h256.8C949 399 960 454.2 960 512c0 245.8-197.8 445.2-442.9 448l183.2-317.4c25.8-37.1 40.9-82.1 40.9-130.7 0-64-26.3-121.9-68.8-163.6z" fill="#FECE42"/><path d="m289.9 454.8-128.3-222C243.7 129.8 370.2 64 511.9 64c164 0 307.5 88.1 385.5 219.7H531.9c-6.6-.6-13.2-.9-19.9-.9-106.7-.1-196.6 73.2-222.1 172z" fill="#DD4F44"/></svg>