<svg viewBox="0 0 1024 1024" xmlns="http://www.w3.org/2000/svg" width="200" height="200"><path d="M973.166 353.17a145.225 145.225 0 0 1-58.88 12.544c-50.835 0-95.525-25.965-121.747-65.316a181.687 181.687 0 0 1-97.682 28.745A182.857 182.857 0 0 1 512 146.286 145.92 145.92 0 0 1 370.98 36.864a162.89 162.89 0 0 0-17.225 4.425c-50.651 16.457-88.758 58.405-130.925 89.088-42.533 30.976-94.099 54.455-125.075 97.024-30.683 42.13-37.302 98.268-53.723 148.882C28.16 425.143 0 474.222 0 528.384c0 54.126 28.16 103.168 44.032 152.027 16.42 50.652 23.04 106.789 53.723 148.92 30.976 42.568 82.506 66.047 125.075 97.023 42.167 30.684 80.274 72.631 130.889 89.088 48.896 15.872 104.119 4.828 158.281 4.828 54.162 0 109.385 11.044 158.245-4.828 50.651-16.457 88.758-58.404 130.889-89.088 42.605-30.94 94.135-54.455 125.11-97.024 30.684-42.13 37.267-98.267 53.724-148.882C995.84 631.552 1024 582.51 1024 528.384c0-54.162-28.16-103.205-44.032-152.1a512.366 512.366 0 0 1-6.802-23.114" fill="#BE9664"/><path d="M280.283 665.527c-6.29 11.3-13.385 22.784-24.283 29.33-10.533 6.327-23.515 7.205-36.571 7.205s-26.04-.878-36.572-7.205c-10.898-6.546-17.993-18.066-24.32-29.367-6.07-10.971-12.251-22.967-12.251-36.571s6.18-25.6 12.288-36.608c6.29-11.3 13.385-22.784 24.283-29.33 10.533-6.364 23.516-7.205 36.572-7.205s26.038.841 36.571 7.205c10.898 6.546 17.993 18.03 24.283 29.366 6.108 10.972 12.288 22.967 12.288 36.572s-6.18 25.6-12.288 36.608m43.52-298.533c-3.254 9.143-7.094 18.505-14.336 24.723-7.021 5.997-16.493 8.228-26.148 9.8-9.692 1.646-19.383 2.597-27.977-.804-8.85-3.51-15.543-11.118-21.577-18.724-5.852-7.388-11.886-15.47-13.568-25.527-1.683-10.057 1.39-19.712 4.571-28.6 3.255-9.142 7.095-18.504 14.336-24.721 7.022-5.998 16.494-8.192 26.149-9.802 9.691-1.645 19.382-2.596 27.977.805 8.85 3.51 15.543 11.118 21.577 18.725 5.888 7.387 11.922 15.506 13.604 25.526 1.683 10.094-1.426 19.712-4.608 28.6M545.5 793.672c-.804 9.692-2.157 19.712-7.57 27.538-5.266 7.607-13.86 12.179-22.784 16.202-8.96 4.022-18.066 7.424-27.246 6.326-9.472-1.133-17.846-6.802-25.673-12.617-7.533-5.632-15.47-11.922-19.639-21.211-4.169-9.326-3.657-19.42-2.852-28.818.804-9.692 2.158-19.712 7.57-27.539 5.266-7.607 13.86-12.178 22.784-16.2 8.96-4.024 18.066-7.425 27.246-6.328 9.472 1.134 17.847 6.803 25.673 12.617 7.534 5.632 15.433 11.923 19.639 21.212 4.169 9.326 3.657 19.42 2.852 28.818m73.875-239.47c-1.427 12.471-3.365 25.82-11.3 36.901-7.9 11.045-19.896 17.225-31.233 22.601-11.703 5.559-24.174 10.789-36.827 9.801-12.288-.987-23.333-7.826-33.975-15.433-10.606-7.57-20.663-15.799-25.564-27.136-5.046-11.63-4.169-25.124-2.706-37.998 1.426-12.47 3.401-25.819 11.264-36.864 7.936-11.08 19.932-17.261 31.269-22.637 11.703-5.56 24.173-10.789 36.827-9.765 12.288.951 23.333 7.79 33.975 15.36 10.606 7.607 20.663 15.836 25.563 27.173 5.047 11.63 4.133 25.124 2.707 37.997m208.42 155.722c-5.815 7.79-12.251 15.579-21.028 19.382-8.485 3.621-18.176 2.926-27.904 1.61-9.692-1.317-19.237-3.255-26.441-9.07-7.424-5.961-11.557-15.214-15.068-24.247-3.438-8.777-6.802-18.359-5.412-28.453 1.353-10.093 7.168-18.395 12.836-25.929 5.815-7.79 12.252-15.58 21.029-19.346 8.484-3.657 18.176-2.962 27.904-1.646 9.691 1.317 19.236 3.255 26.44 9.07 7.425 5.961 11.557 15.214 15.068 24.247 3.438 8.777 6.803 18.359 5.413 28.452-1.353 10.094-7.168 18.396-12.837 25.93" fill="#503C1D"/><path d="M941.714 177.445c7.9 4.79 17.628 5.412 27.429 5.412s19.529-.622 27.428-5.412c8.156-4.901 13.495-13.532 18.213-21.98C1019.355 147.2 1024 138.203 1024 128s-4.645-19.2-9.18-27.429c-4.754-8.484-10.057-17.115-18.249-22.016-7.899-4.754-17.627-5.412-27.428-5.412s-19.53.622-27.429 5.412c-8.155 4.901-13.495 13.495-18.212 21.98-4.572 8.265-9.216 17.262-9.216 27.465s4.608 19.2 9.216 27.429c4.717 8.484 10.057 17.115 18.212 22.016M640 69.522c5.266 3.182 11.74 3.62 18.286 3.62s13.02-.438 18.285-3.583c5.45-3.292 8.997-9.033 12.142-14.702 3.072-5.486 6.144-11.483 6.144-18.286s-3.072-12.8-6.144-18.285c-3.145-5.669-6.692-11.41-12.142-14.665C671.305.439 664.832 0 658.286 0c-6.51 0-13.02.439-18.286 3.584-5.45 3.291-8.997 9.033-12.142 14.702-3.072 5.485-6.144 11.483-6.144 18.285s3.072 12.8 6.144 18.286c3.145 5.669 6.693 11.41 12.142 14.665" fill="#BE9664"/></svg>