<svg viewBox="0 0 1609 1024" xmlns="http://www.w3.org/2000/svg" width="314.258" height="200"><path d="M786.286 844.069c-81.92 36.571-179.64 54.857-293.157 54.857-138.679 0-246.638-39.059-324.023-117.175-77.239-78.117-116.004-187.1-116.004-326.949 0-142.482 39.058-252.05 117.028-328.85C247.808 49.298 358.84 10.825 503.223 10.825c92.16 0 183.881 10.825 275.017 32.622v137.655c-103.278-36.133-189.879-54.126-259.51-54.126-89.235 0-157.99 28.233-206.264 84.846-48.42 56.466-72.557 136.777-72.557 240.786 0 102.107 25.892 181.687 77.97 238.885 51.931 57.051 124.343 85.577 216.795 85.577 83.09 0 166.766-20.92 251.465-62.903v129.902zm81.48 33.645 61.148-243.42H772.39l16.53-84.552h161.207l47.396-190.318H827.246l16.53-84.553h174.958l61.147-242.834h86.748l-60.563 242.834h149.797l60.562-242.834h87.479l-60.709 242.834h156.087l-16.53 84.553H1322.13l-47.981 190.171h170.861l-17.115 84.7h-174.958l-60.562 243.42h-87.333l61.148-243.42h-150.382l-60.562 243.42h-87.48zm169.4-327.972H1187.4l47.397-190.318H1085l-47.982 190.171z" fill="#1296db"/></svg>