<?xml version="1.0" standalone="no"?><!DOCTYPE svg PUBLIC "-//W3C//DTD SVG 1.1//EN" "http://www.w3.org/Graphics/SVG/1.1/DTD/svg11.dtd"><svg t="1630721914261" class="icon" viewBox="0 0 1024 1024" version="1.1" xmlns="http://www.w3.org/2000/svg" p-id="1005" xmlns:xlink="http://www.w3.org/1999/xlink" width="200" height="200"><defs><style type="text/css"></style></defs><path d="M176 505.6h216.32v144H176zM632.32 505.6h216.32v144H632.32z" fill="#F6BE53" p-id="1006"></path><path d="M403.84 181.76h216.32v144H403.84z" fill="#EA5E5A" p-id="1007"></path><path d="M716.16 842.24H560v-23.68h156.16a12.16 12.16 0 0 0 12.16-12.16v-23.68h24.32v24.32a35.84 35.84 0 0 1-35.84 35.84zM464 842.24H307.84a35.84 35.84 0 0 1-35.84-35.84v-23.68h24.32v24.32a12.16 12.16 0 0 0 12.16 12.16h155.52z" fill="#34303D" p-id="1008"></path><path d="M512 890.24a60.16 60.16 0 1 1 60.16-58.24 60.16 60.16 0 0 1-60.16 58.24z m0-96a35.84 35.84 0 1 0 35.84 35.84 35.84 35.84 0 0 0-35.84-35.84z" fill="#34303D" p-id="1009"></path><path d="M499.84 817.92h24.32v24.32h-24.32zM499.84 458.24h24.32v144h-24.32zM499.84 721.92h24.32v24.32h-24.32zM499.84 673.92h24.32v24.32h-24.32zM499.84 625.92h24.32v24.32h-24.32zM416 698.24H152.32a24.32 24.32 0 0 1-24.32-24.32v-192a24.32 24.32 0 0 1 24.32-23.68H416a24.32 24.32 0 0 1 24.32 24.32v192a24.32 24.32 0 0 1-24.32 23.68zM152.32 481.92v192H416v-192z" fill="#34303D" p-id="1010"></path><path d="M236.16 686.08h24.32v60.16h-24.32zM307.84 686.08h24.32v60.16h-24.32z" fill="#34303D" p-id="1011"></path><path d="M211.84 734.08h144v24.32H211.84zM224 625.92h24.32v24.32H224zM272 625.92h24.32v24.32h-24.32zM320 625.92h24.32v24.32H320zM872.32 698.24H608a24.32 24.32 0 0 1-23.68-23.68v-192a24.32 24.32 0 0 1 24.32-23.68h264.32a24.32 24.32 0 0 1 24.32 24.32v192a24.32 24.32 0 0 1-24.96 23.04zM608 481.92v192h264.32v-192z" fill="#34303D" p-id="1012"></path><path d="M691.84 686.08h24.32v60.16h-24.32zM764.16 686.08h24.32v60.16h-24.32z" fill="#34303D" p-id="1013"></path><path d="M668.16 734.08h144v24.32h-144zM680.32 625.92h24.32v24.32h-24.32zM727.68 625.92h24.32v24.32h-24.32zM776.32 625.92h24.32v24.32h-24.32zM643.84 373.76H380.16a24.32 24.32 0 0 1-23.68-23.68v-192a24.32 24.32 0 0 1 24.32-23.68h264.32a24.32 24.32 0 0 1 24.32 24.32v192a24.32 24.32 0 0 1-25.6 23.04zM380.16 158.08v192h264.32v-192z" fill="#34303D" p-id="1014"></path><path d="M464 362.24h24.32v60.16h-24.32zM536.32 362.24h24.32v60.16h-24.32z" fill="#34303D" p-id="1015"></path><path d="M440.32 410.24h144v24.32H440.32zM451.84 302.08h24.32v23.68h-24.32zM499.84 302.08h24.32v23.68h-24.32zM547.84 302.08h24.32v23.68h-24.32z" fill="#34303D" p-id="1016"></path></svg>