<svg viewBox="0 0 1280 1024" xmlns="http://www.w3.org/2000/svg" width="250" height="200"><path d="M699.887 472.6h-132.2V353.8h132.2v118.8zm0-408.6h-132.2v121.4h132.2V64zm156.4 289.6h-132.2v118.8h132.2V353.6zm-312.6-144.2h-132.2v120.2h132.2V209.4zm156.2 0h-132.2v120.2h132.2V209.4zm553.6 200c-28.8-19.4-95.2-26.4-146.2-16.8-6.6-48-33.4-89.8-82.2-127.4l-28-18.6-18.6 28c-36.8 55.6-46.8 147.2-7.4 207.6-17.4 9.4-51.6 22.2-96.8 21.4H4.887c-17.4 101.6 11.6 233.6 88 324.2 74.2 87.8 185.4 132.4 330.8 132.4 314.8 0 547.8-145 656.8-408.4 42.8.8 135.2.2 182.6-90.4 3-5 13.2-26.4 17-34.2l-26.6-17.8zm-1022.2-55.8h-132v118.8h132.2V353.6zm156.2 0h-132.2v118.8h132.2V353.6zm156.2 0h-132.2v118.8h132.2V353.6zm-156.2-144.2h-132.2v120.2h132.2V209.4z" fill="#1296db"/></svg>