<svg viewBox="0 0 1170 1024" xmlns="http://www.w3.org/2000/svg" width="228.516" height="200"><path d="M0 73.143v877.714A73.143 73.143 0 0 0 73.143 1024h1024a73.143 73.143 0 0 0 73.143-73.143V73.143A73.143 73.143 0 0 0 1097.143 0h-1024A73.143 73.143 0 0 0 0 73.143zM1104.97 960H65.316V64h1039.652v896zM453.631 512 245.906 308.37a31.744 31.744 0 0 1 0-45.348 32.987 32.987 0 0 1 46.3 0l200.557 196.754a73.143 73.143 0 0 1 0 104.448l-177.737 174.08a65.829 65.829 0 0 1-92.16 0L453.56 512zm461.824 213.211H587.63a31.963 31.963 0 1 1 0-64h327.826a31.963 31.963 0 1 1 0 64z" fill="#13227a"/></svg>