<svg viewBox="0 0 1024 1024" xmlns="http://www.w3.org/2000/svg" width="200" height="200"><path d="M0 0h1024v1024H0z" fill="#7015E8"/><path d="M74.24 627.627c0-6.4 2.56-12.8 7.253-17.494s11.094-7.253 17.92-7.253c13.654-.427 24.747 10.667 25.174 24.32v.427c0 6.4-2.56 12.373-7.254 17.066s-11.52 7.68-18.346 7.254c-6.4 0-12.8-2.56-17.494-7.254C76.8 640 74.24 634.027 74.24 627.627zm354.56 19.626h-45.653L232.96 414.72c-3.84-6.4-7.68-12.8-10.24-19.627h-1.28c1.28 14.08 2.133 27.734 1.707 41.814v209.92h-38.4V348.16h48.64l146.346 228.693c4.694 6.4 8.534 13.227 12.374 20.48h.426c-1.706-14.506-2.56-29.013-2.133-43.52V348.587h38.4v298.666zm238.08 0H506.027V348.587h154.026v34.133h-115.2v95.573H651.52v34.134H544.853V613.12H666.88v34.133zM904.533 382.72h-86.186v264.533H779.52V382.72h-85.76v-34.133h210.773v34.133z" fill="#FFF"/></svg>