<svg viewBox="0 0 1024 1024" xmlns="http://www.w3.org/2000/svg" width="200" height="200"><path d="M498.233 945.209a323.413 323.413 0 0 1-323.015-323.015c0-100.978 116.11-308.394 310.613-554.78a15.474 15.474 0 0 1 12.402-5.973c2.844 0 8.249.796 12.402 5.973 72.817 92.33 310.613 405.049 310.613 554.78a323.413 323.413 0 0 1-323.015 323.015m60.587-915.91A76.857 76.857 0 0 0 498.233 0c-23.78 0-45.853 10.695-60.587 29.354-120.945 153.202-323.868 433.892-323.868 592.839a384.853 384.853 0 0 0 384.455 384.455 384.91 384.91 0 0 0 384.455-384.455c0-159.004-202.866-439.694-323.868-592.839" fill="#1296db"/><path d="M692.793 629.191a30.72 30.72 0 0 0-40.278 16.327 323.47 323.47 0 0 1-157.582 165.49 30.72 30.72 0 1 0 26.624 55.353A384.91 384.91 0 0 0 709.12 669.526a30.72 30.72 0 0 0-16.327-40.335m41.074-102.4a30.72 30.72 0 0 0-40.335 16.27c-1.706 4.097-3.527 8.079-5.404 12.061a30.72 30.72 0 1 0 55.58 26.169 384.569 384.569 0 0 0 6.372-14.222 30.72 30.72 0 0 0-16.27-40.22" fill="#1296db"/></svg>