<svg viewBox="0 0 1024 1024" xmlns="http://www.w3.org/2000/svg" width="200" height="200"><path d="M1004.57 466.306 557.5 19.267a66.075 66.075 0 0 0-93.338 0l-92.633 92.794L489.28 229.81a78.458 78.458 0 0 1 99.289 99.865l113.4 113.496a78.426 78.426 0 0 1 81.05 129.654 78.362 78.362 0 0 1-110.936 0 78.714 78.714 0 0 1-17.247-85.145l-106.2-105.624v278.379c7.52 3.68 14.59 8.671 20.83 14.847a78.81 78.81 0 0 1 0 110.936 78.714 78.714 0 0 1-111.32 0 78.234 78.234 0 0 1 0-110.84c7.776-7.68 16.511-13.471 25.823-17.31v-281.1a77.85 77.85 0 0 1-25.598-17.119 78.234 78.234 0 0 1-16.895-85.722L325.772 157.881 19.203 464.258c-25.598 25.823-25.598 67.58 0 93.401l447.103 446.975a65.947 65.947 0 0 0 93.273 0l444.991-444.99a65.883 65.883 0 0 0 0-93.306z" fill="#F14E32"/></svg>