<svg viewBox="0 0 2901 1024" xmlns="http://www.w3.org/2000/svg" width="566.602" height="200"><path d="M1274.027 640V436.736h466.602v416.597c-89.258 60.928-168.277 102.4-236.885 124.416-68.779 21.846-150.187 32.939-244.395 32.939-116.053 0-210.602-19.797-283.648-59.392a406.187 406.187 0 0 1-170.154-176.47c-40.278-78.165-60.416-167.935-60.416-269.311 0-106.667 22.186-199.51 66.048-278.187a427.52 427.52 0 0 1 193.536-180.224C1070.933 15.701 1160.02 0 1271.979 0c108.032 0 188.757 9.728 242.346 29.355 53.59 19.456 97.963 49.834 133.291 90.965 35.328 41.13 61.952 93.184 79.701 156.33l-291.328 52.054a157.696 157.696 0 0 0-60.928-84.65c-28.672-19.627-65.365-29.355-109.738-29.355-66.219 0-118.955 23.04-158.379 68.949-39.253 46.08-58.88 118.784-58.88 218.453 0 105.814 19.797 181.248 59.733 226.646 39.595 45.226 95.062 67.925 166.23 67.925 33.792 0 66.048-4.95 96.597-14.677a522.24 522.24 0 0 0 105.301-50.006V640h-201.898zm510.293-133.973c0-159.574 44.544-283.819 133.461-372.736C2006.7 44.544 2130.432 0 2289.152 0c162.645 0 287.915 43.69 375.979 131.072 88.064 87.21 132.096 209.579 132.096 366.933 0 114.347-19.286 207.872-57.686 280.918-38.57 73.216-94.037 130.048-166.741 170.666-72.704 40.79-163.157 61.099-271.701 61.099-110.251 0-201.387-17.579-273.579-52.736a411.99 411.99 0 0 1-175.787-166.57c-44.885-76.118-67.242-171.18-67.242-285.355zM170.667 482.133V311.467h512v170.666h-512zM0 823.467V652.8h512v170.667H0zm2304 29.866c141.312 0 256-152.746 256-341.333s-114.688-341.333-256-341.333S2048 323.413 2048 512s114.688 341.333 256 341.333z" fill="#1296db"/></svg>