<svg viewBox="0 0 1024 1024" xmlns="http://www.w3.org/2000/svg" width="200" height="200"><path d="M797.312 957.568H162.368c-54.4 0-98.368-40.832-98.368-91.264V91.264C64 40.96 108.032 0 162.304 0h635.008c54.272 0 98.304 40.896 98.304 91.328v774.976c0 50.432-44.032 91.264-98.304 91.264z" fill="#6A48BC"/><path d="M585.152 446.656S609.216 343.232 254.528 480c-.64 1.792 2.56-344.256 2.56-344.256l123.264-.704-.64 216.896s324.736-128.128 324.736 94.528V824.32l-119.296 1.536v-379.2zm-62.592-195.2c44.288-53.568 90.688-115.712 90.688-115.712h127.104s-28.16 30.144-94.848 115.712h-122.88zm-262.016 587.52-1.984-260.928 127.936 125.248-125.888 135.68z" fill="#EDF2F7"/></svg>