<svg viewBox="0 0 1024 1024" xmlns="http://www.w3.org/2000/svg" width="200" height="200"><path d="M508.343 286.39c-161.5 0-292.864 131.365-292.864 292.865 0 161.463 131.364 292.864 292.864 292.864 161.5 0 292.864-131.401 292.864-292.864 0-161.5-131.365-292.864-292.864-292.864m0 622.3c-181.65 0-329.436-147.786-329.436-329.436 0-181.65 147.749-329.436 329.436-329.436 181.65 0 329.435 147.786 329.435 329.436 0 181.65-147.785 329.435-329.435 329.435" fill="#333"/><path d="M297.29 682.423h23.405V476.05h-23.406zm90.477-20.517h43.922c26.917 0 47.14-7.204 60.709-21.357 12.727-13.898 19.346-34.414 19.346-61.294 0-27.794-6.034-48.274-17.92-61.55-12.69-14.153-32.366-21.102-59.538-21.102h-46.52v165.303zm50.286-185.82c32.658 0 57.234 9.253 73.984 28.307 15.323 17.335 23.15 42.496 23.15 74.862 0 31.78-8.376 56.942-24.87 74.862-17.334 18.797-42.203 28.342-74.568 28.342h-71.68V476.087h73.984zm276.48.001v20.48H591.982v69.12h115.565v20.48H591.982v75.703h127.451v20.59h-151.15V476.086zM508.343 36.571c-24.247 0-43.959 19.712-43.959 43.96a43.995 43.995 0 1 0 43.959-43.96m0 124.453a80.603 80.603 0 0 1-80.53-80.494c0-44.397 36.132-80.53 80.53-80.53s80.494 36.133 80.494 80.53a80.567 80.567 0 0 1-80.458 80.494M80.53 892.233c-24.247 0-43.959 19.712-43.959 43.959a43.995 43.995 0 1 0 43.96-43.959m0 124.453A80.603 80.603 0 0 1 0 936.192c0-44.398 36.133-80.53 80.53-80.53s80.457 36.132 80.457 80.53a80.567 80.567 0 0 1-80.457 80.494m855.662-124.453c-24.247 0-43.959 19.712-43.959 43.959a43.995 43.995 0 1 0 43.959-43.959m0 124.453a80.603 80.603 0 0 1-80.53-80.494c0-44.398 36.132-80.53 80.53-80.53s80.457 36.132 80.457 80.53a80.567 80.567 0 0 1-80.457 80.494" fill="#333"/><path d="M508.343 197.12a9.143 9.143 0 0 1-9.143-9.143v-36.571a9.143 9.143 0 0 1 18.286 0v36.571a9.143 9.143 0 0 1-9.143 9.143m0 73.143a9.143 9.143 0 0 1-9.143-9.143v-36.571a9.143 9.143 0 0 1 18.286 0v36.571a9.143 9.143 0 0 1-9.143 9.143m259.035 549.376a9.143 9.143 0 0 1-5.485-1.829l-29.148-22.162a9.143 9.143 0 0 1 11.045-14.555l29.11 22.125a9.143 9.143 0 0 1-5.485 16.457m58.222 44.179a9.106 9.106 0 0 1-5.486-1.829L791.003 839.9a9.143 9.143 0 1 1 11.045-14.592l29.11 22.126a9.143 9.143 0 0 1-5.485 16.457m58.222 44.252a9.143 9.143 0 0 1-5.486-1.902l-29.184-22.126a9.143 9.143 0 1 1 11.081-14.555l29.111 22.126a9.143 9.143 0 0 1-5.486 16.457m-634.88-88.394a9.143 9.143 0 0 1-5.522-16.421l29.001-22.235a9.143 9.143 0 0 1 11.118 14.555l-29.001 22.235a9.326 9.326 0 0 1-5.559 1.866m-58.075 44.434a9.143 9.143 0 0 1-5.56-16.384l29.002-22.236a9.143 9.143 0 0 1 11.118 14.52l-29.075 22.235a8.923 8.923 0 0 1-5.485 1.865m-58.149 44.47a9.143 9.143 0 0 1-5.559-16.42l29.074-22.235a9.143 9.143 0 0 1 11.118 14.519l-29.074 22.235a9.07 9.07 0 0 1-5.522 1.902" fill="#333"/></svg>