<svg viewBox="0 0 1044 1024" xmlns="http://www.w3.org/2000/svg" width="203.906" height="200"><path d="M101.218 948.65c-46.37-46.37-32.845-142.975 27.05-258.9 36.709 102.4 108.195 189.344 200.935 245.375-102.4 46.37-187.411 54.098-227.985 13.524zM962.924 86.942c36.71 36.71 34.777 102.4 3.864 187.412-52.166-81.147-129.45-142.974-220.257-179.683 96.604-42.506 175.82-48.302 216.393-7.729zM373.64 459.834c5.796-104.332 92.74-187.411 199.004-187.411s193.207 83.079 199.003 187.411H373.641zm415.396 125.585h253.102c1.932-17.389 1.932-34.777 1.932-54.098 0-86.944-23.185-166.159-63.759-235.713 42.506-110.129 40.574-204.8-15.456-260.83-52.165-54.1-195.139-44.438-355.501 27.047-11.592 0-23.185-1.932-36.71-1.932-220.256 0-405.735 152.634-457.901 357.434 69.554-88.875 142.973-152.634 239.577-199.003-9.66 7.728-59.894 59.894-69.555 67.622C27.8 542.913-53.348 877.162 33.595 964.106c65.691 65.69 185.48 54.098 324.59-11.593 63.758 32.845 137.177 50.234 214.46 50.234 206.732 0 382.55-133.313 446.309-318.792H763.92c-34.777 65.69-104.332 108.196-183.547 108.196s-146.838-44.438-183.547-108.196c-15.457-28.981-25.117-63.759-25.117-98.536h417.328z" fill="#08BBF1"/></svg>