<svg viewBox="0 0 1024 1024" xmlns="http://www.w3.org/2000/svg" width="200" height="200"><path d="M132 215.572h55.312v592.856H132zm160.618 0h55.312v592.856h-55.312zM779.62 808.428H444.292V753.6H779.62c.214 0 21.738-.204 38.77-17.052 15.54-15.364 21.978-53.494 17.228-101.94-3.332-34.028-45.246-51.006-47.796-52.008-26.96-9.462-249.476-87.652-277.65-100.194-35.514-15.772-57.232-53.844-59.588-58.15l-.806-1.558c-1.132-2.432-27.48-60.006-4.342-126.988 25.484-73.754 117.228-79.876 121.124-80.1l1.576-.038h299.722V270.4H569.166c-5.994.538-59.162 6.346-71.9 43.214-14.564 42.156-.408 79.582 1.866 85.11 4.574 7.792 18.072 26.81 33.306 33.584 22.228 9.888 205.222 74.57 273.866 98.654l.296.112c3.136 1.132 76.788 28.722 83.598 98.19 4.62 47.148 2.598 110.808-33.24 146.266-31.666 31.32-69.98 32.898-77.338 32.898z" fill="#008CDB"/></svg>