<svg viewBox="0 0 1024 1024" xmlns="http://www.w3.org/2000/svg" width="200" height="200"><path d="M934.4 750.532c-1.265 3.855-21.685 74.029-71.74 146.13-43.31 62.224-88.185 124.929-158.961 126.073-69.632 1.265-91.859-41.02-171.37-41.02-79.33 0-104.267 39.876-170.044 42.225-68.005 2.71-120.41-68.006-163.84-129.868C109.538 767.217 41.171 534.71 132.91 378.94c45.237-78.004 126.374-127.518 214.739-128.964 66.62-1.204 130.048 44.514 170.526 44.514 41.562 0 118.242-55.296 199.138-47.043 33.852 1.385 128.602 13.854 189.62 101.255-4.758 3.253-113.362 66.44-112.157 195.102C796.52 699.091 932.955 750.05 934.4 750.532m-269.975-586.33C700.868 120.29 724.902 59.993 718.577 0c-52.043 1.988-115.592 34.093-153.239 77.824-33.43 38.069-62.765 99.328-54.573 158.6 57.886 3.433 117.339-29.937 153.66-72.223" fill="#F5B127"/></svg>