<svg viewBox="0 0 1024 1024" xmlns="http://www.w3.org/2000/svg" width="200" height="200"><path d="M771.852 532.743c-1.042-115.476 97.616-171.109 102.127-173.886-55.613-78.261-141.915-89.141-172.7-90.337-73.435-7.08-143.56 41.89-180.737 41.89-37.305 0-94.721-40.716-155.85-39.562-80.103 1.174-153.964 45.083-195.284 114.407-83.104 139.832-21.154 346.705 59.996 459.895 39.681 55.484 86.917 117.74 149.106 115.453 59.852-2.157 82.335-37.438 154.612-37.438 72.228-.107 92.608 37.417 155.726 36.264 64.332-1.325 105.177-56.638 144.632-112.25 45.351-64.197 64.124-126.56 65.09-129.741-1.312-.685-125.288-46.528-126.718-184.695z" fill="#31c37c"/><path d="M638.618 209.064c32.89-38.614 55.165-92.25 49.099-145.727-47.487 1.857-105.129 30.7-139.042 69.163-30.63 34.18-57.183 88.822-49.884 141.252 52.884 3.972 106.864-26.034 139.827-64.688z" fill="#31c37c"/></svg>