<svg viewBox="0 0 1448 1024" xmlns="http://www.w3.org/2000/svg" width="282.813" height="200"><path d="M947.099 184.67c-28.177 19.846-55.618 36.754-85.756 61.255-22.787 18.62-63.95 44.102-66.155 78.406-3.43 52.188 76.937 100.457 34.3 166.61-16.168 25.236-43.612 36.02-78.403 51.451-4.164-7.592 9.067-13.962 14.701-22.049 53.414-77.423-55.62-103.152-41.653-198.463 13.478-92.125 122.02-124.222 222.966-137.21z" fill="#FF1515"/><path d="M606.527 503.193c-25.237 11.762-67.379 13.966-85.757 39.201 18.622 13.97 45.817 13.48 71.056 14.703 103.396 4.656 232.765-4.163 320.97-19.602 2.94 6.37-12.251 17.396-22.051 24.503-55.618 40.674-228.6 52.187-347.922 44.104-39.938-2.694-131.33-13.234-132.31-49.005-1.224-43.368 110.747-48.021 156.81-51.451 9.067-.737 25.974-4.413 39.204-2.453zm-51.453 110.256c11.515 1.47-8.085 8.332-4.901 17.152 42.143 41.654 173.227 29.892 237.666 17.152 13.476-2.694 26.95-10.782 36.752-9.8 24.503 2.207 40.182 30.628 61.253 34.302-74.485 33.568-218.309 49.492-323.422 29.402-27.198-5.143-74.484-19.846-75.955-41.651-2.203-29.651 46.8-42.145 68.607-46.557zm31.851 100.458c7.596 2.45-2.696 6.619-2.45 9.803 22.298 38.711 132.556 24.99 188.663 12.25 11.271-2.698 22.542-10.537 31.853-9.8 28.421 1.959 39.202 31.605 63.704 36.752-78.162 47.775-267.56 67.13-345.474 7.35-3.674-43.616 31.363-48.515 63.704-56.355z" fill="#2365C4"/><path d="M515.87 787.41c-23.276 5.884-83.55-2.449-85.755 29.406-.736 12.25 20.58 26.706 34.3 31.851 79.877 30.138 240.363 34.794 372.427 19.602 61.253-7.103 176.412-27.685 161.711-90.657 18.377 2.207 34.793 13.967 36.75 31.855 7.353 67.626-147.988 96.046-210.712 102.906-136.475 14.945-307.006 12.005-411.628-24.503-34.057-11.759-75.22-33.564-73.504-66.153 2.94-54.885 135.249-70.078 176.411-34.306z" fill="#2365C4"/><path d="M724.133 990.528c-91.88-10.042-180.332-23.518-254.816-56.35 194.788 46.798 478.762 43.368 614.993-56.357 7.349-5.39 14.21-15.926 24.501-14.7-34.3 102.907-166.12 110.013-279.32 127.406l-105.358.001z" fill="#2365C4"/><path d="M787.84 18.06c17.151 16.172 29.402 46.308 29.402 78.405 0 94.821-100.457 149.706-149.46 213.166-10.783 14.21-24.748 36.017-24.502 58.803.489 51.697 53.903 109.522 73.505 151.909-34.303-22.542-75.956-52.678-105.358-88.205-29.401-35.281-58.803-92.615-31.852-142.109 40.428-74.485 160.732-118.833 203.365-198.463 10.29-19.355 18.375-49.003 4.9-73.506z" fill="#FF1515"/><path d="M932.398 527.695c50.474-43.124 135.985-26.216 139.66 46.554 4.166 85.263-89.188 133.043-156.812 137.21 31.36-29.892 114.178-77.917 98.008-147.01-6.614-27.934-41.407-44.84-80.856-36.754z" fill="#2365C4"/></svg>