<svg viewBox="0 0 1024 1024" xmlns="http://www.w3.org/2000/svg" width="200" height="200"><path d="M775.68 0H160.64A97.28 97.28 0 0 0 64 96.64v832a97.28 97.28 0 0 0 96.64 95.36h704A97.28 97.28 0 0 0 960 927.36V184.32h-88.32a96 96 0 0 1-96-96z" fill="#C47272"/><path d="M871.68 184.32H960L775.68 0v88.32a96 96 0 0 0 96 96z" fill="#FFA8A1"/><path d="M640 271.36a168.96 168.96 0 0 0-113.28-58.88h-19.2a284.16 284.16 0 0 0-141.44 39.68 306.56 306.56 0 0 0-151.04 329.6A284.8 284.8 0 0 0 332.8 763.52a288 288 0 0 1-26.24-48A384 384 0 0 1 281.6 518.4a221.44 221.44 0 0 1 82.56-151.04 169.6 169.6 0 0 1 104.32-37.76A147.84 147.84 0 0 1 582.4 384a200.32 200.32 0 0 1 46.72 151.68 184.96 184.96 0 0 1-58.88 128 108.8 108.8 0 0 0 33.92-10.24 177.28 177.28 0 0 0 94.72-120.32A276.48 276.48 0 0 0 704 416.64a256 256 0 0 0-64-145.28z" fill="#FFF"/><path d="M789.12 384a299.52 299.52 0 0 0-92.8-108.8 353.92 353.92 0 0 1 40.96 285.44A213.12 213.12 0 0 1 613.12 697.6a160.64 160.64 0 0 1-57.6 12.16 134.4 134.4 0 0 1-80.64-28.16 184.96 184.96 0 0 1-77.44-140.16 197.76 197.76 0 0 1 57.6-167.04 135.04 135.04 0 0 0-64 27.52A178.56 178.56 0 0 0 327.68 512a326.4 326.4 0 0 0-3.84 89.6A256 256 0 0 0 378.88 752a183.68 183.68 0 0 0 143.36 71.68h28.16A313.6 313.6 0 0 0 753.92 704a306.56 306.56 0 0 0 35.2-320z" fill="#FFF"/></svg>