<svg viewBox="0 0 1024 1024" xmlns="http://www.w3.org/2000/svg" width="200" height="200"><path d="M883.532 426.005c-62.628-21.093-145.183-14.522-216.642.587 64.305-33.212 131.461-79.637 166.275-134.891 0 0 62.628-81.314-26.785-153.358 0 0-45.986-39.052-98.614-17.007v-.437c-31.535 10.293-41.239-19.636-41.239-19.636l-.22.146c-16.13-54.6-75.403-65.693-75.403-65.693-112.332-23.945-135.981 75.84-135.981 75.84-21.243 62.623-14.527 145.253.508 216.638-33.21-64.307-79.632-131.387-134.887-166.203 0 0-81.243-62.627-153.36 26.788 0 0-39.051 45.912-17.079 98.54h-.367c10.292 31.606-19.636 41.315-19.636 41.315l.15.216c-54.602 16.133-65.698 75.403-65.698 75.403-23.94 112.335 75.914 135.986 75.914 135.986 62.628 21.167 145.183 14.522 216.568-.587-64.307 33.288-131.385 79.711-166.275 134.966 0 0-62.554 81.314 26.86 153.356 0 0 45.986 39.052 98.613 17.08v.29c31.535-10.218 41.24 19.636 41.24 19.636l.221-.146c16.13 54.672 75.402 65.768 75.402 65.768 112.332 23.869 135.982-75.914 135.982-75.914 11.317-33.65 14.526-72.992 12.849-113.282 22.263 94.45 80.583 219.269 234.961 250.582l49.198-37.01-22.188-78.757S679.08 847.097 623.097 725.858c23.867 31.751 50.801 59.78 80.363 78.467 0 0 81.314 62.627 153.36-26.789 0 0 39.05-45.986 17.079-98.613h.365c-10.292-31.53 19.633-41.241 19.633-41.241l-.217-.22c54.673-16.13 65.768-75.398 65.768-75.398 23.938-112.408-75.916-136.059-75.916-136.059z" fill="#16b13b"/></svg>