<svg viewBox="0 0 1024 1024" xmlns="http://www.w3.org/2000/svg" width="200" height="200"><path d="M839.653 768.021a211.95 211.95 0 0 0 13.823-87.033 421.341 421.341 0 0 0-115.19-282.6 187.889 187.889 0 0 1-55.804-102.392v-7.168c0-58.875 0-181.745-63.995-247.275A144.884 144.884 0 0 0 512 .084c-89.593 0-149.492 43.516-149.492 255.979a339.428 339.428 0 0 1-51.196 157.171c-11.263 22.014-23.038 45.052-32.765 69.626a852.922 852.922 0 0 0-65.53 221.166 23.038 23.038 0 0 0 0 10.24l153.587 287.72a21.502 21.502 0 0 0 35.325 4.095A249.324 249.324 0 0 1 512 981.507h144.884a20.478 20.478 0 0 0 14.847-6.143l175.09-170.482a20.99 20.99 0 0 0 0-30.206 20.478 20.478 0 0 0-7.68-5.12z" fill="#1A1A1A"/><path d="M688.114 716.825a827.836 827.836 0 0 0-96.76-388.576 404.959 404.959 0 0 1-123.894 51.196 137.717 137.717 0 0 1-77.306-34.301 736.708 736.708 0 0 1-39.933 89.08c-11.263 21.503-22.526 43.517-31.741 66.043a1015.725 1015.725 0 0 0-62.46 189.423 175.602 175.602 0 0 1 44.54 67.067 215.534 215.534 0 0 0 51.196 79.353 147.956 147.956 0 0 1 63.483 99.32 525.269 525.269 0 0 0 51.196 2.56 358.37 358.37 0 0 0 175.09-41.98c7.167-56.316 17.406-146.932 46.588-179.186z" fill="#FFF"/><path d="M892.897 814.097a255.979 255.979 0 0 1-24.574-18.43c-3.584-3.584 0-21.503 0-30.718a62.97 62.97 0 0 0-8.704-51.196 35.837 35.837 0 0 0-26.621-10.75 20.99 20.99 0 0 0-20.479 20.478h-87.033a21.502 21.502 0 0 0-21.502-21.503c-63.483 0-63.994 232.43-63.994 237.549a80.377 80.377 0 0 0 14.846 63.483 65.019 65.019 0 0 0 51.196 18.942 135.669 135.669 0 0 0 108.023-56.315l13.823-13.823a156.147 156.147 0 0 1 51.196-25.598c30.205-11.263 61.947-22.526 61.947-53.756s-27.646-45.052-48.124-58.363zm-539.604 22.014a222.19 222.19 0 0 1-51.196-79.353c-18.942-39.42-35.325-74.234-67.066-74.234-39.933 0-51.196 35.837-51.196 55.291a140.276 140.276 0 0 1-3.584 14.335 109.559 109.559 0 0 1-26.622 5.632c-26.11 5.12-69.626 13.823-69.626 51.196a126.966 126.966 0 0 0 3.584 31.23 139.765 139.765 0 0 1-3.072 70.137 20.99 20.99 0 0 0 0 5.632c0 51.196 79.354 57.851 126.966 61.947h18.942a178.161 178.161 0 0 1 33.277 13.823A255.979 255.979 0 0 0 362.508 1024a54.78 54.78 0 0 0 51.196-41.98 138.229 138.229 0 0 0-60.411-145.909z" fill="#FDB515"/><path d="M831.974 661.534a18.942 18.942 0 0 0-12.8 4.095L678.387 431.665a1135.523 1135.523 0 0 0-63.994-142.837 22.014 22.014 0 0 0-28.67-9.215 21.502 21.502 0 0 0-9.727 28.67 803.774 803.774 0 0 1 102.391 415.71 102.392 102.392 0 0 0 21.503 69.114 57.34 57.34 0 0 0 42.492 17.407h14.847a84.985 84.985 0 0 0 63.483-19.455 147.444 147.444 0 0 0 28.67-108.535 20.99 20.99 0 0 0-21.503-20.99z" fill="#1A1A1A"/><path d="M554.493 129.61c-24.574 0-42.493 26.621-42.493 63.482s17.919 62.971 42.493 62.971 43.004-26.622 43.004-62.97-17.919-63.484-43.004-63.484z" fill="#FFF"/><path d="M535.55 208.45c0 20.991 8.191 37.886 18.943 37.886s19.454-16.895 19.454-37.373c0-20.99-8.703-37.885-19.454-37.885s-18.943 16.895-18.943 37.885z"/><path d="M426.503 129.61c-24.574 0-42.493 26.621-42.493 63.482s17.919 62.971 42.493 62.971 43.004-26.622 43.004-62.97-17.918-63.484-43.004-63.484z" fill="#FFF"/><path d="M409.608 207.939c0 20.478 8.704 36.86 18.943 36.86s18.942-16.382 18.942-36.86c0-20.478-8.191-37.373-18.942-37.373s-18.943 16.895-18.943 37.373z"/><path d="M495.105 213.57h-4.607c-45.565 0-127.99 43.005-127.99 84.985s80.89 85.497 107 85.497c12.286 0 148.98-47.612 148.98-85.497 0-55.803-94.713-78.841-123.383-84.985z" fill="#FDB515"/></svg>