<svg viewBox="0 0 1024 1024" xmlns="http://www.w3.org/2000/svg" width="200" height="200"><path d="m535.304 1024-27.256-9.326s3.32-138.965-46.557-148.94c-33.232-38.56 5.342-1635.726 125.019-5.313 0 0-41.23 20.66-48.55 55.855-7.983 34.575-2.656 107.724-2.656 107.724z" fill="#FFF"/><path d="m535.304 1024-27.256-9.326s3.32-138.965-46.557-148.94c-33.232-38.56 5.342-1635.726 125.019-5.313 0 0-41.23 20.66-48.55 55.855-7.983 34.575-2.656 107.724-2.656 107.724z" fill="#A6A385"/><path d="M549.928 889.684s238.72-156.938 182.88-483.416C678.931 168.89 551.935 91.093 538.02 61.18c-15.347-21.338-29.97-58.51-29.97-58.51l9.975 660.261c0 .664-20.66 202.167 31.919 226.752" fill="#FFF"/><path d="M549.928 889.684s238.72-156.938 182.88-483.416C678.931 168.89 551.935 91.093 538.02 61.18c-15.347-21.338-29.97-58.51-29.97-58.51l9.975 660.261c0 .664-20.66 202.167 31.919 226.752" fill="#499D4A"/><path d="M494.088 898.317s-224.096-152.94-210.785-422.22C296.009 206.8 454.186 74.477 484.763 50.542 504.712 29.262 505.421 21.279 506.72 0c13.96 29.927 11.304 447.498 13.281 496.697 5.991 189.492-10.625 365.717-25.913 401.62z" fill="#FFF"/><path d="M494.088 898.317s-224.096-152.94-210.785-422.22C296.009 206.8 454.186 74.477 484.763 50.542 504.712 29.262 505.421 21.279 506.72 0c13.96 29.927 11.304 447.498 13.281 496.697 5.991 189.492-10.625 365.717-25.913 401.62z" fill="#58AA50"/></svg>