<svg viewBox="0 0 1024 1024" xmlns="http://www.w3.org/2000/svg" width="200" height="200"><path d="M562.2 801.6H460.9c-19.3 0-34.9-15.6-34.9-34.9 0-19.3 15.6-34.9 34.9-34.9h101.4c19.3 0 34.9 15.6 34.9 34.9-.1 19.3-15.7 34.9-35 34.9z" fill="#4377FF"/><path d="M653.6 1012.1c-5.2 0-10.3-1.1-15.2-3.5-12.1-5.8-19.7-18-19.7-31.4V512c0-19.3 15.6-34.9 34.9-34.9 19.3 0 34.9 15.6 34.9 34.9v392.9l69.3-55c15.1-12 37-9.5 49 5.6s9.5 37.1-5.6 49l-125.9 100c-6.3 5-14 7.6-21.7 7.6zm0-642.6c-19.3 0-34.9-15.6-34.9-34.9V46.8c0-19.3 15.6-34.9 34.9-34.9 19.3 0 34.9 15.6 34.9 34.9v287.8c0 19.3-15.6 34.9-34.9 34.9zm-283.2 0c-19.3 0-34.9-15.6-34.9-34.9V119.2l-69.3 55c-15 12-37 9.5-49-5.6s-9.5-37.1 5.6-49l125.9-100c10.5-8.3 24.8-9.9 36.9-4.1 12.1 5.8 19.7 18 19.7 31.4v287.8c0 19.2-15.7 34.8-34.9 34.8zm0 642.6c-19.3 0-34.9-15.6-34.9-34.9V512c0-19.3 15.6-34.9 34.9-34.9s34.9 15.6 34.9 34.9v465.2c0 19.2-15.7 34.9-34.9 34.9z" fill="#C660FF"/><path d="M902.9 801.6H747.8c-19.3 0-34.9-15.6-34.9-34.9 0-19.3 15.6-34.9 34.9-34.9h155.1c21.8 0 39.6-17.7 39.6-39.6V424.8c0-21.8-17.7-39.6-39.6-39.6H121.1c-21.8 0-39.6 17.7-39.6 39.6v267.4c0 21.8 17.7 39.6 39.6 39.6h151.1c19.3 0 34.9 15.6 34.9 34.9 0 19.3-15.6 34.9-34.9 34.9H121.1c-60.3 0-109.4-49.1-109.4-109.4V424.8c0-60.3 49.1-109.4 109.4-109.4H903c60.3 0 109.4 49.1 109.4 109.4v267.4c-.1 60.4-49.2 109.4-109.5 109.4z" fill="#4377FF"/></svg>