<svg viewBox="0 0 1024 1024" xmlns="http://www.w3.org/2000/svg" width="200" height="200"><path d="M267.9 237.3H960c21.4 0 38.8 17.4 38.8 38.8v615c0 17.5-21.4 26-33.4 13.3l-87.6-92.2c-24.2-25.5-57.8-39.9-92.9-39.9h-517c-21.4 0-38.8-17.4-38.8-38.8V276.1c.1-21.5 17.4-38.8 38.8-38.8z" fill="#FFCA28"/><path d="M267.9 237.3c-21.4 0-38.8 17.4-38.8 38.8v380.8l561.2-419.5H267.9zm731 38.8c0-21.4-17.4-38.8-38.8-38.8H794l204.8 274V276.1z" fill="#FFCA28"/><path d="m792.7 235.5-2.3 1.8h3.6zM267.9 772.3h517c35.1 0 68.7 14.4 92.9 39.9l87.6 92.2c12.1 12.7 33.4 4.2 33.4-13.3V511.3L794 237.3h-3.6L229.2 656.8v76.7c0 21.5 17.3 38.8 38.7 38.8z" fill="#FFB806"/><path d="M756.1 113.5H63.9c-21.4 0-38.8 17.4-38.8 38.8v615c0 17.5 21.4 26 33.4 13.3l87.6-92.2c24.2-25.5 57.8-39.9 92.9-39.9h517c21.4 0 38.8-17.4 38.8-38.8V152.3c0-21.4-17.3-38.8-38.7-38.8z" fill="#2196F3"/><path d="M794.8 445.5 692.8 309l-522.6 2.1c-8.6.2-13.4 10.1-8.3 17l92.2 123.4-83.9.6c-8.6.2-13.4 10.1-8.3 17l134.2 179.5h460c21.4 0 38.7-17.3 38.7-38.7V445.5z" fill="#1E88E5"/><path d="M663.4 338.8H184.7c-15.6 0-28.2-12.6-28.2-28.2s12.6-28.2 28.2-28.2h478.7c15.6 0 28.2 12.6 28.2 28.2s-12.6 28.2-28.2 28.2zM438.1 479.6H184.7c-15.6 0-28.2-12.6-28.2-28.2s12.6-28.2 28.2-28.2h253.4c15.6 0 28.2 12.6 28.2 28.2s-12.6 28.2-28.2 28.2z" fill="#E3F2FD"/></svg>