<svg viewBox="0 0 1024 1024" xmlns="http://www.w3.org/2000/svg" width="200" height="200"><path d="M579.838 66.562c0-.96-1.28-1.92-1.92-1.408-.64-.512-1.92.448-1.92 1.408-199.355 149.948-403.126 168.38-403.126 168.38v367.99c0 323.704 267.13 400.758 330.872 397.174 63.807 3.584 417.398-125.565 417.398-421.877V160.767s-119.55 15.424-341.304-94.205z" opacity=".2" fill="#36ab60"/><path d="m465.985 589.236-107.261-107.26-34.751 34.814 142.012 142.013 258.746-258.874-34.751-34.75z" fill="#36ab60"/><path d="m514.688 1023.978-2.688-.064c-38.463 1.088-145.276-32.896-241.658-109.054-83.006-65.534-181.883-181.05-181.883-359.159V162.943c0-4.992 2.048-9.792 5.631-13.312a16.896 16.896 0 0 1 13.44-5.247h3.008c20.672 0 206.587-3.904 387.062-138.94A20.607 20.607 0 0 1 512 .003c6.016 0 10.944 2.175 14.4 5.44 180.475 135.036 366.39 138.94 387.062 138.94h3.008a17.152 17.152 0 0 1 13.44 5.247c3.583 3.52 5.631 8.32 5.631 13.312V555.7c.064 323.064-334.52 468.277-420.853 468.277zM512 986.795h1.024l1.664.064c56.959 0 383.798-118.846 383.798-431.222V181.183c-57.086-2.368-221.498-20.032-386.55-140.285-165.052 120.253-329.464 137.917-386.55 140.285v374.454c0 312.313 326.903 431.222 383.798 431.222l1.664-.064H512z" fill="#36ab60"/></svg>