<svg viewBox="0 0 1024 1024" xmlns="http://www.w3.org/2000/svg" width="200" height="200"><path d="M699.52 348.608H320.896c-82.944 0-147.84 66.816-147.84 152.256v29.76c0 85.376 64.896 152.256 147.84 152.256H699.52c82.88 0 147.84-66.88 147.84-152.256v-29.76c-.064-78.08-68.48-152.256-147.84-152.256z" fill="#D71718"/><path d="M901.44 96H122.56C57.728 96 0 151.744 0 222.4v579.392C0 872.384 54.08 928 122.56 928h778.88c64.896 0 122.56-55.616 122.56-126.272V222.4C1024 151.744 969.856 96 901.44 96zm39.616 430.784c0 137.408-108.16 252.608-245.184 252.608h-378.56c-133.44 0-245.248-111.424-245.248-252.608v-29.568c0-137.408 108.16-252.544 245.248-252.544h378.56c133.376 0 245.184 111.36 245.184 252.544v29.568z" fill="#D71718"/></svg>