<?xml version="1.0" standalone="no"?><!DOCTYPE svg PUBLIC "-//W3C//DTD SVG 1.1//EN" "http://www.w3.org/Graphics/SVG/1.1/DTD/svg11.dtd"><svg t="1622768118494" class="icon" viewBox="0 0 1024 1024" version="1.1" xmlns="http://www.w3.org/2000/svg" p-id="5701" xmlns:xlink="http://www.w3.org/1999/xlink" width="200" height="200"><defs><style type="text/css"></style></defs><path d="M246.48853252 575.6097008c-26.87647162 0-48.75517774-21.8607295-48.75517773-48.73720111s21.87870612-48.74619024 48.75517773-48.74618859c26.86748246 0 48.74619024 21.86971697 48.74619026 48.74618859s-21.87870612 48.7372011-48.74619026 48.73720111z m0-66.69679597a17.97757317 17.97757317 0 0 0-17.95959487 17.95959486c0 9.89665372 8.05395201 17.95060741 17.95959487 17.9506074a17.97757317 17.97757317 0 0 0 17.95959486-17.9506074 17.97757317 17.97757317 0 0 0-17.95959486-17.95959486zM415.81030502 575.6097008c-26.87647162 0-48.74619024-21.8607295-48.74619024-48.73720111s21.86971697-48.74619024 48.74619024-48.74618859c26.88546076 0 48.74619024 21.86971697 48.7461886 48.74618859s-21.8607295 48.7372011-48.7461886 48.73720111z m0-66.69679597a17.97757317 17.97757317 0 0 0-17.95959652 17.95959486c0 9.89665372 8.05395201 17.95060741 17.95959652 17.9506074s17.95060741-8.05395201 17.9506074-17.9506074a17.96858401 17.96858401 0 0 0-17.9506074-17.95959486zM585.13207755 575.6097008c-26.87647162 0-48.74619024-21.8607295-48.74619027-48.73720111s21.86971697-48.74619024 48.74619027-48.74618859 48.74619024 21.86971697 48.74618857 48.74618859-21.86971697 48.7372011-48.74618857 48.73720111z m0-66.69679597a17.97757317 17.97757317 0 0 0-17.95959654 17.95959486 17.97757317 17.97757317 0 0 0 17.95959654 17.9506074 17.96858401 17.96858401 0 0 0 17.95060571-17.9506074 17.96858401 17.96858401 0 0 0-17.95060571-17.95959486zM754.45385004 575.6097008c-26.87647162 0-48.74619024-21.8607295-48.74619025-48.73720111s21.86971697-48.74619024 48.74619025-48.74618859c26.86748246 0 48.74619024 21.86971697 48.74618859 48.74618859s-21.87870612 48.7372011-48.74618859 48.73720111z m0-66.69679597a17.96858401 17.96858401 0 0 0-17.95060739 17.95959486c0 9.89665372 8.05395201 17.95060741 17.95060739 17.9506074a17.97757317 17.97757317 0 0 0 17.95959487-17.9506074 17.97757317 17.97757317 0 0 0-17.95959487-17.95959486zM923.77562256 575.6097008c-26.88546076 0-48.74619024-21.8607295-48.74619024-48.73720111s21.8607295-48.74619024 48.74619024-48.74618859c26.86748246 0 48.74619024 21.86971697 48.74618856 48.74618859s-21.87870612 48.7372011-48.74618856 48.73720111z m0-66.69679597a17.97757317 17.97757317 0 0 0-17.95959655 17.95959486c0 9.89665372 8.05395201 17.95060741 17.95959655 17.9506074a17.97757317 17.97757317 0 0 0 17.95959488-17.9506074 17.97757317 17.97757317 0 0 0-17.95959488-17.95959486zM693.8604396 724.19434212a28.22479028 28.22479028 0 0 0-27.69445229 33.57311916h-2.48090447c-59.86531791 54.15743814-139.16439405 87.23617424-226.05899238 87.23617259-145.14193652 0-269.15123612-92.17101739-316.65697247-221.02527197a28.22479028 28.22479028 0 1 0-38.24728706 14.93936329c53.47429133 144.12620299 192.37801017 247.12870865 354.89527039 247.12870863 101.84295246 0 194.38250985-40.46751623 262.46357772-106.13060369a28.20681199 28.20681199 0 0 0-6.22023944-55.72148801zM745.15045499 287.47414875c-68.72826144-95.74855439-180.95326153-158.24758725-307.53335367-158.24758722-186.33754532 0-341.61883254 135.38910249-372.72003472 312.96258154a28.17085707 28.17085707 0 0 0-11.15508424 22.44499901 28.22479028 28.22479028 0 1 0 51.68552284-15.69442158c27.86523772-158.13972249 166.19367447-278.67036068 332.19858526-278.6703607 107.69465187 0 203.73983645 50.74170079 265.53774253 129.55538135h0.78202407a28.22479028 28.22479028 0 1 0 54.0675517 11.29890392 28.22479028 28.22479028 0 0 0-12.86295377-23.64949632z" fill="#d81e06" p-id="5702"></path></svg>