<svg viewBox="0 0 1080 1024" xmlns="http://www.w3.org/2000/svg" width="210.938" height="200"><path d="m820.167 611.556 9.5 14.222 52.168 94.834 9.5 14.222-9.5 14.222-52.167 94.834-9.5 14.222H673.222l-9.5-14.222-52.167-94.834-4.722-14.222 9.5-14.222 52.11-94.834 9.5-14.222h142.223-.057zm23.666-146.944c-9.5 0-14.222 4.721-18.944 14.222l-23.723 37.945H692.11l-23.722-37.945c-4.722-9.5-14.223-14.222-18.944-14.222-4.722 0-9.5 0-14.223 4.721L568.89 512c-9.5 4.722-14.222 18.944-9.5 33.166l23.722 37.945-52.167 94.834h-42.667c-14.222 0-23.665 9.5-23.665 23.723V777.5c0 14.223 9.443 23.723 23.665 23.723h42.667l52.167 94.834-23.723 37.945a25.031 25.031 0 0 0 9.5 33.11l66.39 42.666c4.722 0 9.5 4.722 14.222 4.722 9.5 0 14.223-4.722 18.944-14.223l23.723-37.945h109.056l23.723 37.945c4.722 9.5 14.222 14.223 18.944 14.223 4.722 0 9.5 0 14.222-4.722l66.332-42.667c9.5-4.779 14.223-19 9.5-33.223l-23.722-37.774 52.167-94.834h42.667c14.222 0 23.723-9.5 23.723-23.723v-75.833c0-14.222-9.5-23.722-23.723-23.722H962.39l-52.167-94.89 23.723-37.946a25.031 25.031 0 0 0-9.5-33.166l-66.39-42.667c-4.722-4.721-9.5-4.721-14.222-4.721zm0 270.222-47.389 85.333h-94.833l-47.389-85.333 47.389-80.612h94.833l47.389 80.612zm-426.667-393.5h379.278V246.5H417.166v94.833zm0 189.61h18.944c23.723-37.945 56.89-71.111 94.834-94.834H417.166v94.834zM37.945 9.5v948.168h398.222c-18.944-28.445-33.166-61.611-47.388-94.834h-256v-758.5h758.5V393.5c33.165 14.223 66.389 33.167 94.833 56.89V9.5H37.945zm284.444 237h-94.833v94.833h94.833V246.5zm0 189.667h-94.833v94.834h94.833v-94.834zm-94.833 284.445h94.833v-94.834h-94.833v94.834z" fill="purple"/></svg>