<svg viewBox="0 0 1050 1024" xmlns="http://www.w3.org/2000/svg" width="205.078" height="200"><path d="M192.547 0h665.162q192.547 0 192.547 192.547v638.906q0 192.547-192.547 192.547H192.547Q0 1024 0 831.453V192.547Q0 0 192.547 0z" fill="#00C8FF"/><path d="M201.3 43.76h647.657q157.539 0 157.539 157.54v621.4q0 157.54-157.539 157.54H201.3q-157.538 0-157.538-157.54V201.3q0-157.54 157.538-157.54z" fill="#001D26"/><path d="M259.063 248.56c0-3.5 7.002-5.25 10.94-5.25 28.007-1.751 70.018-1.751 112.028-1.751 120.342 0 168.04 66.516 168.04 152.287 0 112.028-80.519 159.289-180.293 159.289h-32.82v168.041a4.595 4.595 0 0 1-5.252 5.251h-69.142a4.595 4.595 0 0 1-5.251-5.25zm76.581 232.808h35.009c51.2 0 99.774-17.505 99.774-87.522 0-56.014-35.008-84.02-92.772-84.02a272.63 272.63 0 0 0-42.01 1.75zm376.342-52.513c-35.008 0-45.51 17.504-45.51 31.507s8.751 26.257 54.7 50.763c68.267 32.82 91.022 64.766 91.022 112.027 0 70.017-52.513 108.527-126.03 108.527a185.983 185.983 0 0 1-91.023-19.255c-3.5-1.75-3.5-3.5-3.5-7.002v-64.766c0-3.5 1.75-5.25 5.25-3.5a155.679 155.679 0 0 0 87.522 26.256c35.009 0 49.012-14.003 49.012-32.82 0-15.754-10.94-29.758-54.7-52.513-61.266-29.758-87.522-59.515-87.522-110.277 0-56.014 43.76-103.276 120.342-103.276a206.003 206.003 0 0 1 78.769 12.253 6.345 6.345 0 0 1 3.5 8.753v59.514c0 3.501-1.75 5.251-7 3.501a160.383 160.383 0 0 0-74.394-19.692z" fill="#FFF"/></svg>