<?xml version="1.0" standalone="no"?><!DOCTYPE svg PUBLIC "-//W3C//DTD SVG 1.1//EN" "http://www.w3.org/Graphics/SVG/1.1/DTD/svg11.dtd"><svg t="1622641033764" class="icon" viewBox="0 0 1024 1024" version="1.1" xmlns="http://www.w3.org/2000/svg" p-id="786" xmlns:xlink="http://www.w3.org/1999/xlink" width="200" height="200"><defs><style type="text/css"></style></defs><path d="M0 0m136.533333 0l750.933334 0q136.533333 0 136.533333 136.533333l0 750.933334q0 136.533333-136.533333 136.533333l-750.933334 0q-136.533333 0-136.533333-136.533333l0-750.933334q0-136.533333 136.533333-136.533333Z" fill="#FFC738" p-id="787"></path><path d="M339.503787 523.946667l228.816213-228.816214 228.816213 228.816214-228.816213 228.816213z" fill="#EAB83A" p-id="788"></path><path d="M802.051413 515.39968L702.982827 614.4H669.013333l109.226667-109.226667s-40.004267-40.809813-54.613333-54.613333c-5.36576-5.065387 10.07616 97.348267-81.92 109.226667-50.039467 6.458027-94.631253-40.1408-95.573334-95.573334-1.133227-67.078827 89.675093-88.255147 81.92-95.573333-41.1648-38.87104-95.573333-95.573333-95.573333-95.573333l-114.688 114.688-47.295147-47.295147a50.817707 50.817707 0 1 0-9.557333 9.775787L408.234667 397.312 286.72 518.826667l144.46592 136.43776-45.970773 45.970773a50.804053 50.804053 0 1 0 9.325226 9.885013s0.136533 0 0.177494-0.08192l46.421333-46.421333L532.48 750.933333l54.613333-54.613333v33.91488l-57.234773 57.193813-89.361067-89.347413A15.837867 15.837867 0 0 0 413.696 712.430933c0 0.314027 0.150187 0.505173 0.150187 0.846507a8.192 8.192 0 0 0 1.365333 3.39968 68.840107 68.840107 0 1 1-40.96-41.301333 10.922667 10.922667 0 0 0 2.280107 0.887466A15.824213 15.824213 0 0 0 392.260267 649.898667l-134.51264-134.43072 114.128213-114.059947a15.824213 15.824213 0 0 0-14.363307-26.78784c-0.354987 0-0.505173 0.191147-0.846506 0.191147a8.192 8.192 0 0 0-3.44064 1.365333 68.758187 68.758187 0 1 1 41.314986-40.96 15.837867 15.837867 0 0 0 25.613654 17.98144l115.862186-115.780267 140.178774 140.0832a16.124587 16.124587 0 0 1 0 22.459734 15.824213 15.824213 0 0 1-15.674027 3.97312 7.20896 7.20896 0 0 1-2.321067-0.887467 68.56704 68.56704 0 0 0-72.594773 15.906133 68.717227 68.717227 0 1 0 113.568427 25.408854 9.05216 9.05216 0 0 1-1.365334-3.44064c0-0.354987-0.2048-0.546133-0.2048-0.846507a15.783253 15.783253 0 0 1 4.328107-14.363307 14.772907 14.772907 0 0 1 6.567253-3.822933 15.332693 15.332693 0 0 1 15.906134 3.822933l83.68128 83.64032zM638.661973 655.36h116.61312a10.60864 10.60864 0 1 1 0 21.203627h-116.61312a10.60864 10.60864 0 1 1 0-21.203627z m0 42.407253h95.409494a10.594987 10.594987 0 0 1 0 21.203627h-95.409494a10.594987 10.594987 0 0 1 0-21.203627z m0 42.407254h84.814507a10.594987 10.594987 0 0 1 0 21.203626h-84.814507a10.594987 10.594987 0 0 1 0-21.203626zM791.893333 955.733333v-27.306666h109.226667v-13.653334h-13.653333v-13.653333h-13.653334v-13.653333h-13.653333v-13.653334h-13.653333v-13.653333h-13.653334v-13.653333h-13.653333v-13.653334h-13.653333v-13.653333h-13.653334v-13.653333h13.653334v-13.653334h13.653333v13.653334h13.653333v13.653333h13.653334v13.653333h13.653333v13.653334h13.653333v13.653333h13.653334v13.653333h13.653333v13.653334h13.653333v13.653333h13.653334v-109.226667h27.306666v163.84H791.893333z m70.314667-68.266666zM860.16 887.466667z" fill="#30384F" p-id="789"></path></svg>