<svg viewBox="0 0 1024 1024" xmlns="http://www.w3.org/2000/svg" width="200" height="200"><path d="M853.44 1024H170.56A170.56 170.56 0 0 1 0 853.44V170.56A170.56 170.56 0 0 1 170.56 0h682.88A170.56 170.56 0 0 1 1024 170.56v682.88A170.56 170.56 0 0 1 853.44 1024z" fill="#FFF"/><path d="M653.12 104.96C737.6 88.64 815.36 98.24 880 161.6a84.8 84.8 0 0 1 27.52 67.2 631.36 631.36 0 0 1-71.68 259.84 409.28 409.28 0 0 1-39.36 67.2 335.36 335.36 0 0 0 3.2-145.92 128 128 0 0 1 2.88-40 197.12 197.12 0 0 0-43.2-173.76 341.12 341.12 0 0 0-106.24-91.2zM403.2 581.76A121.92 121.92 0 0 1 352 461.12a322.88 322.88 0 0 0 0-91.2 30.08 30.08 0 0 1 23.68-37.12 152.96 152.96 0 0 1 56.64-14.72c28.16 0 41.92 15.36 48.64 42.56A322.88 322.88 0 0 1 448 576a29.44 29.44 0 0 1-44.8 5.76zm41.28-218.88c9.6 0 19.84-2.56 19.2-13.76s-11.52-16.32-26.24-15.04c-4.8 0-17.92-3.84-16.32 11.2s11.84 16.96 23.36 17.6zM323.2 475.2a524.16 524.16 0 0 0 4.48-83.52 352 352 0 0 1 69.12-261.12 345.6 345.6 0 0 0-158.4-19.2 128 128 0 0 0-115.84 107.52 227.52 227.52 0 0 0-4.8 77.76 1018.56 1018.56 0 0 0 85.44 320 172.8 172.8 0 0 0 33.92 51.84c22.08 22.72 37.76 23.04 58.88 0s40-46.08 61.12-68.48c9.28-9.6 8.64-15.04 0-24a125.12 125.12 0 0 1-33.92-99.2zm167.68 151.04c-11.84-11.2-22.72-3.84-28.8 7.04-20.48 34.88-55.36 42.88-98.88 51.2a121.28 121.28 0 0 0 59.52 12.8 92.8 92.8 0 0 0 71.68-37.12 22.72 22.72 0 0 0-3.52-33.92zM781.12 326.4c-14.4 56.64-1.6 113.92-1.92 171.2a61.44 61.44 0 0 1-11.2 40.96 842.24 842.24 0 0 1-64-130.24 177.28 177.28 0 0 1-8.32-36.48 55.36 55.36 0 0 1 77.44-57.92c7.04 2.88 8.64 7.04 7.04 12.48zm-28.8 9.6c0-9.92-6.08-11.84-16.32-10.56s-20.16 0-19.84 14.08S725.76 352 734.4 352s17.6-4.16 17.92-16zm34.24 282.24c-9.92-4.8-21.44 7.36-24.32 20.16s-2.24 19.2 10.88 20.48a169.92 169.92 0 0 0 128-32 202.24 202.24 0 0 1-114.24-7.68zm-24.64-40.32a982.4 982.4 0 0 1-72.64-135.36 187.84 187.84 0 0 1-20.16-88.64 65.92 65.92 0 0 1 49.28-64 299.2 299.2 0 0 1 56-5.44c-21.12-92.16-123.84-172.16-226.88-177.92a156.16 156.16 0 0 0-168 99.84A267.2 267.2 0 0 0 356.8 288c0 6.72-10.56 13.44-1.92 19.52s13.44 0 20.48-2.56a147.84 147.84 0 0 1 30.4-10.24 74.88 74.88 0 0 1 84.48 24.96 117.44 117.44 0 0 1 15.68 48.64 244.48 244.48 0 0 1-12.48 164.48c-7.04 14.72-12.16 30.08-17.92 45.12-3.2 8.32-4.48 13.44 7.68 17.6 35.2 10.88 42.88 25.6 42.88 64a1181.44 1181.44 0 0 0 8.32 199.04 73.92 73.92 0 0 0 47.68 64 104.64 104.64 0 0 0 128-78.72c10.56-64 17.92-128 23.04-193.6A53.44 53.44 0 0 1 758.4 600c12.16-6.72 7.36-12.8 1.92-21.12z" fill="#336892"/></svg>