<svg viewBox="0 0 1024 1024" xmlns="http://www.w3.org/2000/svg" width="200" height="200"><path d="M998.81 795.648a61.44 61.44 0 0 0-56.73-37.888h-61.44V550.093c-61.44 36.71-61.44 63.539-122.88 76.083V757.76h-61.44c-24.832 0-47.258 15.002-56.832 37.888-9.42 23.04-4.096 49.408 13.363 67.02l122.88 122.88a61.286 61.286 0 0 0 86.887 0l122.88-122.88c17.561-17.612 22.784-44.031 13.312-66.969M327.68 757.76h-61.44V634.88c0-33.946 26.317-61.44 60.314-61.44h368.64c101.785 0 185.446-82.534 185.446-184.32V81.92a61.44 61.44 0 1 0-122.88 0v307.2c0 33.894-28.672 61.44-62.566 61.44h-368.64A183.347 183.347 0 0 0 143.36 634.88v122.88H81.92c-24.832 0-47.258 14.95-56.832 37.888-9.42 22.938-4.096 49.357 13.363 66.97l122.88 122.88a61.286 61.286 0 0 0 86.887 0l122.88-122.88A61.44 61.44 0 0 0 327.68 757.76" fill="#ea9518"/></svg>