<svg viewBox="0 0 1024 1024" xmlns="http://www.w3.org/2000/svg" width="200" height="200"><path d="M202.496 774.528A415.552 415.552 0 1 0 790.144 186.88a415.552 415.552 0 0 0-587.648 587.648z" fill="#E9EAEB"/><path d="M1007.552 369.536v351.616c0 27.2-20.8 48-48 48H911.68V893.76c0 14.4-19.2 22.4-28.8 9.6L731.072 769.088H496.128a47.104 47.104 0 0 1-48-47.936V369.536c0-27.136 20.8-47.936 48-47.936h463.488c25.6 0 47.936 20.8 47.936 48z" fill="#D0E6FF"/><path d="M894.08 925.76a28.8 28.8 0 0 1-24-11.2L724.672 783.488H496.128c-35.2 0-63.936-28.8-63.936-63.936V368c0-35.136 28.8-63.872 63.936-63.872h463.488c35.2 0 63.936 28.8 63.936 63.872v351.616c0 35.2-28.8 64-64 64h-31.936v108.608c0 14.4-8 25.6-20.736 30.4-4.8 1.6-8 3.2-12.8 3.2zM496.128 337.6a32 32 0 0 0-32 32v351.552a32 32 0 0 0 32 32h241.28L895.68 893.76V753.152h63.936a32 32 0 0 0 32-32V369.536a32 32 0 0 0-32-31.936H496.128z" fill="#0061C8"/><path d="M815.744 657.28h-32V497.344a32 32 0 0 0-31.936-32h-16a32 32 0 0 0-31.936 32v159.808h-32V497.408c0-35.2 28.8-63.936 64-63.936h16c35.136 0 63.872 28.8 63.872 64v159.744z" fill="#0061C8"/><path d="M687.872 545.344h111.936v32H687.872z" fill="#0061C8"/><path d="M16.64 209.728v351.616c0 27.2 20.8 48 48 48h47.936v124.608c0 14.4 19.2 22.4 28.8 9.6L293.12 607.68h236.544c27.2 0 48-20.736 48-47.936V208.128a47.104 47.104 0 0 0-48-47.936H66.176c-28.8 1.6-49.536 22.4-49.536 49.536z" fill="#FFF"/><path d="M128.512 765.952c-3.2 0-8 0-11.2-1.6a31.232 31.232 0 0 1-20.736-30.4V625.28h-32c-35.136 0-63.872-28.8-63.872-63.936V209.728c0-35.2 28.736-63.936 63.872-63.936h463.488c35.2 0 64 28.8 64 64V561.28c0 35.2-28.8 63.936-64 63.936H297.92L152.512 756.288c-8 4.8-16 9.6-24 9.6zm-63.936-588.16a32 32 0 0 0-31.936 32V561.28a32 32 0 0 0 32 32h63.872v140.608l1.6-1.6L285.184 593.28h241.28a32 32 0 0 0 32-32V209.728a32 32 0 0 0-32-32H64.64z" fill="#0061C8"/><path d="M304.32 497.408h-32c-35.136 0-63.872-28.8-63.872-63.936V337.6c0-35.2 28.8-63.936 63.936-63.936h32c35.136 0 63.872 28.8 63.872 63.936v95.872c0 35.2-28.8 64-63.936 64zm-32-191.744a32 32 0 0 0-31.936 31.936v95.872a32 32 0 0 0 32 32h32a32 32 0 0 0 31.936-32V337.6a32 32 0 0 0-32-32h-32z" fill="#0061C8"/><path d="m308.352 443.264 22.592-22.592 64.448 64.384-22.592 22.592z" fill="#0061C8"/></svg>