<svg viewBox="0 0 1024 1024" xmlns="http://www.w3.org/2000/svg" width="200" height="200"><path d="M759.467 66.56h33.28c8.96 0 14.933-5.973 14.933-14.933s-8.96-14.934-14.933-14.934h-33.28c-8.96 0-14.934 8.96-14.934 14.934-.426 5.973 5.974 14.933 14.934 14.933zm-177.92 891.733h-33.28c-8.96 0-14.934 8.96-14.934 14.934s8.96 14.933 14.934 14.933h33.28c8.96 0 14.933-8.96 14.933-14.933s-5.973-14.934-14.933-14.934zm210.773 0h-32.853c-8.96 0-14.934 8.96-14.934 14.934s8.96 14.933 14.934 14.933h33.28c8.96 0 14.933-8.96 14.933-14.933s-5.973-14.934-15.36-14.934zm-421.547 0H337.92c-8.96 0-14.933 8.96-14.933 14.934s8.96 14.933 14.933 14.933h33.28c8.96 0 14.933-8.96 14.933-14.933s-6.4-14.934-15.36-14.934zm-108.373 0h-33.28c-8.96 0-14.933 8.96-14.933 14.934s8.96 14.933 14.933 14.933h33.28c8.96 0 14.933-8.96 14.933-14.933s-2.986-14.934-14.933-14.934zm213.76 0h-33.28c-8.96 0-14.933 8.96-14.933 14.934s8.96 14.933 14.933 14.933h33.28c8.96 0 14.933-8.96 14.933-14.933s-5.973-14.934-14.933-14.934zm531.627-43.52h-14.934V866.56c-2.986-8.96-11.946-17.92-20.906-17.92-8.96 0-23.894 17.92-23.894 17.92v48.213H933.12c-8.96 0-17.92 8.96-17.92 17.92V960h-49.067c-8.96 0-14.933 8.96-14.933 14.933 0 5.974 8.96 14.934 14.933 14.934h48.214v14.933c0 8.96 8.96 17.92 17.92 17.92h72.106c8.96 0 17.92-8.96 17.92-17.92v-69.12a15.83 15.83 0 0 0-14.506-20.907zm-899.414 30.72V930.56c0-8.96-8.96-17.92-17.92-17.92H66.56v-54.187c0-8.96-8.96-17.92-14.933-17.92-5.974 0-14.934 8.96-14.934 17.92v54.187H18.347C9.387 912.64 0 921.6 0 930.56v72.107C0 1015.04 9.387 1024 18.347 1024h72.106c8.96 0 17.92-8.96 17.92-17.92v-14.933h48.214c8.96-2.987 17.92-11.947 17.92-20.907s-14.934-23.893-14.934-23.893h-51.2zm849.92-258.56c0 8.96 8.96 14.934 14.934 14.934 5.973 0 14.933-8.96 14.933-14.934v-33.28c0-8.96-8.96-14.933-14.933-14.933-5.974 0-14.934 8.96-14.934 14.933v33.28zm0-316.16c0 8.96 8.96 14.934 14.934 14.934 5.973 0 14.933-8.96 14.933-14.934V337.92c0-8.96-8.96-14.933-14.933-14.933-5.974 0-14.934 8.96-14.934 14.933v32.853zM1006.507.427H934.4c-8.96 0-17.92 8.96-17.92 17.92V33.28h-48.213c-8.96 2.987-17.92 11.947-17.92 20.907s17.92 23.893 17.92 23.893h48.213v11.947c0 8.96 8.96 17.92 17.92 17.92h27.307v54.186c0 8.96 8.96 17.92 14.933 17.92 5.973 0 14.933-8.96 14.933-17.92V108.8h14.934c8.96 0 17.92-5.973 17.92-17.92V18.347c0-8.96-8.96-17.92-17.92-17.92zM958.293 792.32c0 8.96 8.96 14.933 14.934 14.933 5.973 0 14.933-8.96 14.933-14.933v-32.853c0-8.96-8.96-14.934-14.933-14.934-5.974 0-14.934 8.96-14.934 14.934v32.853zm0-210.773c0 8.96 8.96 14.933 14.934 14.933 5.973 0 14.933-8.96 14.933-14.933v-33.28c0-8.96-8.96-14.934-14.933-14.934-5.974 0-14.934 8.96-14.934 14.934v33.28zm29.867-316.16V229.12c0-8.96-8.96-14.933-14.933-14.933-8.96 0-14.934 8.96-14.934 14.933v33.28c0 11.947 5.974 17.92 14.934 17.92 8.96 0 14.933-8.96 14.933-14.933zM958.293 476.16c0 8.96 8.96 14.933 14.934 14.933 5.973 0 14.933-8.96 14.933-14.933v-33.28c0-8.96-8.96-14.933-14.933-14.933-5.974 0-14.934 8.96-14.934 14.933v33.28zm-271.36 482.133h-33.28c-8.96 0-14.933 8.96-14.933 14.934s8.96 14.933 14.933 14.933h33.28c8.96 0 14.934-8.96 14.934-14.933s-5.547-14.934-14.934-14.934zM443.307 66.56h33.28c8.96 0 14.933-8.96 14.933-14.933 0-5.974-8.96-14.934-14.933-14.934h-33.28c-8.96 0-14.934 8.96-14.934 14.934-.426 5.973 5.547 14.933 14.934 14.933zm-105.387 0h33.28c8.96 0 14.933-8.96 14.933-14.933 0-5.974-8.96-14.934-14.933-14.934h-33.28c-8.96 0-14.933 8.96-14.933 14.934-.427 5.973 5.546 14.933 14.933 14.933zm-105.813 0h33.28c8.96 0 14.933-8.96 14.933-14.933 0-5.974-5.973-17.92-14.933-17.92h-33.28c-8.96 0-14.934 8.96-14.934 17.92s2.987 14.933 14.934 14.933zM18.347 108.8H33.28v48.213c3.413 8.96 12.373 17.92 21.333 17.92 8.96 0 23.894-17.92 23.894-17.92V108.8h11.946c8.96 0 17.92-8.96 17.92-17.92V66.56h48.214c8.96 0 14.933-8.96 14.933-14.933 3.413-11.947-2.56-17.92-14.507-17.92H108.8v-15.36c0-8.96-8.96-17.92-17.92-17.92H18.347c-8.96 0-17.92 8.96-17.92 17.92v72.106c0 9.387 8.96 18.347 17.92 18.347zm530.346-42.24h33.28c8.96 0 14.934-8.96 14.934-14.933 0-5.974-8.96-14.934-14.934-14.934h-33.28c-8.96 0-14.933 8.96-14.933 14.934-.427 5.973 5.547 14.933 14.933 14.933zm105.387 0h33.28c8.96 0 14.933-8.96 14.933-14.933 0-5.974-8.96-14.934-14.933-14.934h-33.28c-8.96 0-14.933 8.96-14.933 14.934-.427 5.973 5.973 14.933 14.933 14.933zM63.573 654.08c0-8.96-8.96-14.933-14.933-14.933-5.973 0-14.933 8.96-14.933 14.933v33.28c0 8.96 8.96 14.933 14.933 14.933 5.973 0 14.933-8.96 14.933-14.933v-33.28zm0-210.773c0-8.96-8.96-14.934-14.933-14.934-5.973 0-14.933 8.96-14.933 14.934v33.28c0 8.96 8.96 14.933 14.933 14.933 5.973 0 14.933-8.96 14.933-14.933v-33.28zm0 105.386c0-8.96-8.96-14.933-14.933-14.933-5.973 0-14.933 8.96-14.933 14.933v33.28c0 8.96 8.96 14.934 14.933 14.934 5.973 0 14.933-8.96 14.933-14.934v-33.28zm0-210.773c0-8.96-8.96-14.933-14.933-14.933-5.973-.427-14.933 8.533-14.933 14.933v33.28c0 8.533 8.96 14.933 14.933 14.933 5.973 0 14.933-8.96 14.933-14.933v-33.28zm0-108.8c0-8.96-8.96-14.933-14.933-14.933-5.973 0-14.933 8.96-14.933 17.92v33.28c0 8.96 5.973 14.933 14.933 14.933s14.933-8.96 14.933-14.933V229.12zM33.707 759.467v33.28c0 8.96 5.973 14.933 14.933 14.933s14.933-8.96 14.933-14.933v-33.28c0-8.96-8.96-14.934-14.933-14.934-5.973-.426-14.933 8.96-14.933 14.934zm870.4 84.053V180.907c0-33.28-27.307-60.16-60.16-60.16h-663.04c-33.28 0-60.16 27.306-60.16 60.16V843.52c0 33.28 27.306 60.16 60.16 60.16H843.52c33.28.427 60.587-26.88 60.587-60.16zM734.293 376.747c0 18.773-14.933 37.546-37.546 37.546S659.2 399.36 659.2 376.747v-37.974H546.133v376.32h37.547c22.613 0 37.547 14.934 37.547 37.547s-18.774 37.547-37.547 37.547H433.067c-22.614 0-37.547-14.934-37.547-37.547s18.773-37.547 37.547-37.547h37.546v-376.32H357.547v37.547c0 18.773-14.934 37.547-37.547 37.547s-37.547-14.934-37.547-37.547v-75.093c0-11.094 3.84-18.774 11.094-26.454 7.68-7.253 15.36-11.093 26.453-11.093h376.32c11.093 0 18.773 3.84 26.453 11.093 7.68 7.68 11.094 14.934 11.094 26.454v75.52z" fill="#1DC6DD"/></svg>