<svg viewBox="0 0 1024 1024" xmlns="http://www.w3.org/2000/svg" width="200" height="200"><path d="m710.827 749.653 197.546 175.36-389.12-30.72c76.374-46.08 139.094-101.12 186.027-144.64h5.12zm218.88 104.96 36.266-476.586c-17.92 46.08-46.506 99.413-83.626 156.586zM724.053 738.987l197.12 174.933-52.48-358.4a1524.053 1524.053 0 0 1-144.64 183.04zm-230.4 170.666a689.92 689.92 0 0 1-130.56 55.894l454.4-30.72-323.84-25.6zM113.92 680.107l119.04 278.186L331.093 633.6zm245.76-62.72L691.2 724.053l-84.48-335.786zm265.387-261.974L934.4 334.507 692.907 136.96zM801.28 51.2l-202.667-.853 90.027 63.146zM54.613 561.92l-6.826 197.547 48.64-88.747zm110.934 79.36c38.4 2.56 77.653-5.973 116.906-23.467a621.227 621.227 0 0 0 81.494-46.933 962.133 962.133 0 0 0 119.466-102.4c144.214-142.933 203.52-302.933 140.374-366.507-14.934-15.36-36.694-23.04-64-23.04-83.2-.426-207.36 62.294-313.174 167.254S79.787 465.493 79.36 549.547c0 29.866 8.107 53.333 24.747 69.973s35.413 20.907 61.44 22.187zm300.8 263.253L480 897.28 346.453 640.427l-100.266 332.8 7.68-.854 26.026-3.84a634.027 634.027 0 0 0 162.134-51.2l24.746-11.946zm272.64-212.48 2.986-3.84 6.827-7.68 9.387-11.52 13.226-16.64 12.374-15.36 12.8-16.64c9.813-12.8 19.2-26.026 29.866-40.533s21.334-30.72 31.574-46.507l-17.92-11.093L632.32 395.52l81.92 325.12 24.32-27.733zm231.68-522.666-255.147-35.84 243.2 198.826a416 416 0 0 0 16.64-81.493c.427-3.413.427-7.253.853-11.093s.427-6.827.427-10.24a231.68 231.68 0 0 0-5.973-60.587zM872.533 518.4l2.134-2.987c4.693-6.826 11.946-17.92 19.626-31.573 21.334-37.547 47.787-91.307 58.88-130.987l-317.44 21.334 210.774 129.28 25.6 15.786zM491.947 893.867h.853c69.12-38.4 130.987-85.76 200.533-153.174L356.267 631.467zm-445.014-98.56c1.28 43.946 10.667 80.213 27.734 107.946L90.453 715.52zm61.44-92.16-18.346 216.32c26.026 33.706 60.586 49.066 111.786 49.066h16.214l-8.96-22.613c-19.627-49.067-75.947-188.16-101.12-242.347zM966.827 156.16a153.6 153.6 0 0 0-14.08-31.573c-23.04-38.4-62.72-62.72-118.187-72.534L710.827 120.32zm0 0" fill="#D52900"/></svg>