<svg viewBox="0 0 1024 1024" xmlns="http://www.w3.org/2000/svg" width="200" height="200"><path d="M763.733 356.267c-42.666-108.8-149.333-185.6-268.8-185.6-145.066 0-266.666 110.933-285.866 251.733-96 21.333-166.4 106.667-166.4 209.067 0 117.333 96 213.333 213.333 213.333h70.4c17.067 0 32-14.933 32-32s-14.933-32-32-32H256c-83.2 0-149.333-68.267-149.333-149.333 0-74.667 55.466-138.667 132.266-149.334H249.6c10.667 0 21.333-10.666 21.333-21.333v-8.533c4.267-119.467 104.534-217.6 224-217.6 98.134 0 187.734 66.133 215.467 160l2.133 4.266v2.134C714.667 409.6 723.2 416 733.867 416H736c96 0 179.2 76.8 181.333 172.8 2.134 100.267-68.266 181.333-164.266 187.733H697.6c-17.067 0-32 14.934-32 32s12.8 29.867 27.733 32H748.8c130.133-2.133 232.533-108.8 232.533-243.2 0-125.866-96-228.266-217.6-241.066z" fill="#00C1DE"/><path d="M535.467 778.667v-51.2h17.066v-21.334h-68.266v21.334h17.066v51.2A38.25 38.25 0 0 0 518.4 851.2a38.25 38.25 0 0 0 17.067-72.533zm172.8-72.534H729.6v21.334h-21.333zm-313.6 0H416v21.334h-21.333zm224 0H640v21.334h-21.333zm44.8 0H684.8v21.334h-21.333zm-89.6 0H595.2v21.334h-21.333zm-224 0H371.2v21.334h-21.333zm89.6 0H460.8v21.334h-21.333zm-132.267 0h21.333v21.334H307.2zm0-70.4h21.333V652.8H307.2zm0 36.267h21.333v17.067H307.2zm0-74.667h21.333v21.334H307.2zm266.667 0H595.2v21.334h-21.333zm-134.4 0H460.8v21.334h-21.333zm268.8 0H729.6v21.334h-21.333zm0 74.667H729.6v17.067h-21.333zm0-36.267H729.6V652.8h-21.333zM518.4 445.867a38.25 38.25 0 0 0-17.067 72.533v78.933h-17.066v21.334h68.266v-21.334h-17.066V518.4a38.25 38.25 0 0 0-17.067-72.533zm-98.133 38.4c0-21.334-17.067-38.4-38.4-38.4A38.25 38.25 0 0 0 364.8 518.4v78.933h-14.933v21.334H416v-21.334h-19.2V518.4c14.933-4.267 23.467-19.2 23.467-34.133zm247.466 134.4H684.8v-21.334h-17.067V518.4a38.25 38.25 0 0 0-17.066-72.533A38.25 38.25 0 0 0 633.6 518.4v78.933h-14.933v21.334h49.066z" fill="#00C1DE"/></svg>