<svg viewBox="0 0 1024 1024" xmlns="http://www.w3.org/2000/svg" width="200" height="200"><path d="M446.206 894.49c-.398.874-.874 2.184-1.312 3.06l-8.264-3.972C261.55 877.886 75.11 814.6 75.11 734.27c0-26.618 20.54-50.652 56.77-75.562 39.728-27.054 99.954-55.42 175.516-84.222 83.824-150.21 82.95-253.262 2.582-315.238-44.932-8.304-65.47-18.792-74.21-41.912-13.508-35.794 29.28-59.83 103.054-81.64 59.79-17.48 115.686-25.346 135.352-13.11 19.188 12.236 45.846 54.586 86.01 133.166l6.516 1.31c236.656 49.342 395.13 107.384 380.708 166.776-6.516 27.054-33.172 36.668-98.206 48.03-.874 0-102.18 16.566-137.536 23.122a1165.964 1165.964 0 0 0-77.706 17.044c27.928 254.098-6.118 385.516-114.812 385.516-23.6 0-48.074-.874-72.942-3.06zm148.462-314.8c-1.31-17.48-3.06-35.754-4.808-55.42-15.732 4.768-31.424 9.574-46.72 15.256-.874.436-4.768 1.748-10.926 3.496 3.496 22.724 4.808 45.846 3.496 68.966 23.162-12.196 41.476-24.432 55.022-36.668l3.936 4.37zm2.622 47.594a462.412 462.412 0 0 1-66.822 37.106c-3.06 18.354-6.992 37.542-12.634 56.77-8.342 30.114-25.784 73.774-51.964 131.856 18.314 1.31 36.232 2.184 53.234 2.184 55.024 0 83.43-74.25 78.186-227.916zM418.278 848.646c29.24-62.888 48.03-109.172 55.896-138.848 2.186-7.866 4.37-16.13 6.078-23.996-35.754 13.944-72.026 26.22-109.132 37.106-17.48 32.298-39.728 67.218-66.782 105.198 36.67 8.74 75.482 15.732 113.94 20.54zM258.494 815.91c17.48-24.472 34.484-49.342 50.612-74.688a3654.926 3654.926 0 0 1-147.548 36.708c23.996 13.508 58.082 26.618 96.936 37.98zM121.83 740.824c83.388-18.354 156.288-36.708 218.74-55.022 17.878-34.484 28.802-64.636 34.046-90.38-16.17 5.682-32.298 11.8-48.468 17.878-73.336 27.968-130.544 55.022-167.212 79.932-25.744 17.48-37.98 32.298-37.98 41.038-.436 2.184 0 4.37.874 6.516v.038zm299.944-162.008c-1.748 26.22-9.614 55.896-23.162 89.07 30.59-10.052 61.14-20.936 90.818-33.61a350.6 350.6 0 0 0-.398-77.27 472.634 472.634 0 0 0-22.724 7.43c-15.296 4.368-30.114 9.574-44.534 14.38zm27.054-420.872c2.186 1.31.438.874-3.058.874-8.036.23-16.05.96-23.996 2.186-23.598 3.496-46.282 8.74-69.006 15.296-24.87 7.43-46.68 15.692-60.664 23.558-3.934 2.186-7.43 4.37-9.614 6.556 6.992 4.768 24.91 9.614 60.704 14.858 12.634 1.748 75.084 10.448 93.44 13.11 23.122 3.456 45.368 6.952 67.656 10.886-27.932-51.968-47.596-82.08-55.462-87.324zm130.544 253.66a680.694 680.694 0 0 0-73.336-14.382c-14.858 49.302-30.59 90.778-47.594 124.426 17.48-5.682 42.786-13.548 57.604-18.354a1180.986 1180.986 0 0 0 63.326-91.69zm22.724-38.418c10.448-19.188 20.5-38.416 29.24-57.604a2631.218 2631.218 0 0 0-98.246-21.452c-4.768 20.54-9.614 41.078-15.256 61.578a842.17 842.17 0 0 1 84.222 17.48l.04-.002zm-186.878 22.248c-2.622 46.282-17.878 98.246-45.408 155.454 7.866-2.622 15.732-5.244 23.598-8.304 23.996-32.736 46.242-82.95 66.742-149.772a239.752 239.752 0 0 0-44.932 2.662v-.04zm-1.31-42.746a326.56 326.56 0 0 1 58.518-1.748c5.682-20.54 10.886-41.912 16.13-65.074a1312.018 1312.018 0 0 0-58.916-9.138c-8.74-1.35-28.406-3.972-47.594-6.556 17.004 23.996 27.492 51.926 31.862 82.516zm379.834 85.136c26.22-4.37 46.72-7.43 46.72-7.43 36.668-6.556 56.334-12.674 61.14-14.858-2.622-3.496-7.866-7.866-15.296-12.674-16.606-10.448-42.35-22.684-76.396-34.92-37.542-13.944-83.824-27.928-134.914-41.038-8.74 19.666-18.792 39.33-29.24 58.956 44.972 13.508 93.836 30.59 147.548 51.526l.436.398.002.04zm-82.952 13.944a1424.61 1424.61 0 0 0-86.448-27.928c-11.362 18.752-23.558 37.542-36.668 56.77a1324.758 1324.758 0 0 1 123.156-28.842h-.04z" fill="#4ABC99"/></svg>