<svg viewBox="0 0 1024 1024" xmlns="http://www.w3.org/2000/svg" width="200" height="200"><path d="M303.942 1007.244s-56.553-63.721-109.661-115.899a3952.547 3952.547 0 0 0-171.008-43.38l116.503-202.938c61.58 80.71 169.332 149.97 271.593 175.104l-107.38 187.113zM132.748 390.656C132.7 185.716 307.2 0 510.278 0c203.31 0 377.716 175.942 377.716 380.835 0 204.846-174.406 380.835-377.716 380.835-203.125 0-377.577-166.167-377.577-371.06zm571.485-97.652-85.039-13.173a39.238 39.238 0 0 1-32.07-22.481l-38.586-83.13a42.31 42.31 0 0 0-38.12-24.437 42.31 42.31 0 0 0-38.075 24.53l-39.005 83.828a38.68 38.68 0 0 1-31.558 21.55l-85.224 13.313a42.17 42.17 0 0 0-33.56 28.392 42.543 42.543 0 0 0 9.728 42.962l67.026 69.725c.093 0 0 .046.093.093 7.773 8.378 11.404 19.735 9.96 31.092l-15.732 97.373a42.543 42.543 0 0 0 17.222 41.426 42.822 42.822 0 0 0 44.637 2.56l73.821-39.936a38.167 38.167 0 0 1 39.192-1.164l75.729 40.96a42.124 42.124 0 0 0 61.952-43.985l-14.895-93.184v-1.21a38.54 38.54 0 0 1 10.24-35.096v-.046l66.048-68.608a42.217 42.217 0 1 0-23.738-71.354h-.093zM836.375 881.71c-53.34 51.944-119.575 125.533-119.575 125.533L609.327 819.99c102.306-25.134 200.285-94.394 261.957-175.104l126.232 202.938c-.093 0-85.923 12.102-161.234 33.839z" fill="#1afa29"/></svg>