<svg viewBox="0 0 1024 1024" xmlns="http://www.w3.org/2000/svg" width="200" height="200"><path d="M1012.736 12.288c-14.848-14.848-39.424-14.848-54.272 0l-130.56 130.56-79.872-79.872c-14.848-14.848-39.936-14.848-54.784 0-14.848 14.848-14.848 39.936 0 54.784l79.872 79.872-110.592 110.592L476.16 122.368c-14.848-14.848-39.936-14.848-54.784 0-14.848 14.848-14.848 39.936 0 54.784L607.232 363.52 491.52 479.232c-51.712-40.448-116.736-64.512-187.392-64.512C136.192 414.72 0 550.4 0 718.336c0 167.424 135.68 303.616 303.104 304.128h3.072c21.504 0 38.4-17.408 38.4-38.4s-17.408-38.4-38.4-38.4h-2.048c-125.44 0-227.328-101.888-227.328-227.328S178.176 491.52 304.128 491.52s227.328 101.888 227.328 227.328c0 29.696-5.632 58.368-16.384 84.48-3.072 5.632-5.12 11.776-5.12 18.944 0 20.992 17.408 38.4 38.4 38.4 16.896 0 31.232-10.752 36.352-26.112 14.848-35.84 22.528-74.752 22.528-115.712 0-69.632-23.04-133.632-62.464-184.832l143.36-143.36L853.504 225.28l158.208-158.208c15.872-15.36 15.872-39.424 1.024-54.784z" fill="#0e932e"/><path d="M446.976 855.552c0 17.92 14.336 32.256 32.256 32.256S512 873.472 512 855.552s-14.336-32.256-32.256-32.256c-17.92-.512-32.768 14.336-32.768 32.256z" fill="#0e932e"/></svg>