<svg viewBox="0 0 1024 1024" xmlns="http://www.w3.org/2000/svg" width="200" height="200"><path d="M951.808 881.664c-29.696 6.144-60.416-7.168-91.648-22.528-120.32-61.44-242.688-116.224-374.272-145.92-67.072-15.36-133.632-24.576-202.752-23.552-77.312 1.024-137.728 47.104-156.16 116.224-1.024 6.144-3.072 13.312-3.072 20.48-1.024 38.912-1.024 38.912-39.936 38.912H39.936c-31.744 0-34.816-4.096-19.456-33.792 20.48-40.96 48.128-78.336 75.264-114.176C192 583.68 317.44 486.912 472.576 429.056c20.48-7.168 29.696-6.144 39.936 15.36 39.936 82.432 93.696 153.088 169.472 204.8 21.504 14.336 44.032 25.6 69.12 33.792 11.264 4.096 21.504 8.192 33.792-1.024 10.24-9.216 15.36 2.048 20.48 8.192 31.744 33.792 64 68.096 95.744 102.912 9.216 10.24 19.456 15.36 32.768 16.384 31.744 2.048 59.392 14.336 76.288 41.984 13.312 21.504 7.168 30.72-18.432 30.72-10.24-.512-21.504-.512-39.936-.512z" fill="#F5AD30"/><path d="M943.616 288.256c-1.024 145.92-48.128 254.976-145.92 342.528-20.48 18.432-38.912 21.504-64 8.192-61.44-32.768-105.984-81.408-146.944-135.68-69.12-90.624-76.288-192.512-58.368-299.008 1.024-7.168 4.096-14.336 7.168-21.504 3.072-10.24 7.168-14.336 19.456-8.192 32.768 18.432 64 37.888 82.432 73.216 5.12 10.24 10.24 12.288 20.48 10.24 50.176-9.216 101.888-5.12 152.064-3.072 10.24 0 16.384 1.024 22.528-10.24 16.384-30.72 45.056-48.128 74.24-66.048 17.408-11.264 23.552-5.12 26.624 13.312 4.096 35.84 11.264 73.728 10.24 96.256z" fill="#F5AD30"/><path d="M439.808 375.808c-36.864 14.336-73.216 16.384-109.056 7.168-15.36-3.072-30.72-8.192-31.744-27.648-1.024-10.24-9.216-8.192-15.36-9.216-95.744-19.456-169.472 59.392-146.944 156.16 5.12 23.552 14.336 46.08 26.624 67.072 5.12 9.216 6.144 16.384-3.072 21.504-11.264 6.144-12.288-6.144-15.36-11.264-27.648-49.152-43.008-101.888-25.6-158.208 20.48-66.048 82.432-104.96 150.016-96.768 17.408 2.048 33.792 5.12 48.128-9.216 6.144-6.144 16.384-4.096 24.576-2.048 38.912 8.192 70.656 27.648 97.792 62.464z" fill="#F5AE30"/><path d="M271.872 720.384h80.384c13.312 0 20.48 6.144 23.552 18.432 6.144 20.48 17.408 32.768 41.984 27.648 12.288-2.048 23.552 1.024 33.792 10.24 7.168 7.168 11.264 16.384 8.192 25.6-3.072 10.24-13.312 4.096-20.48 5.12-77.824 15.872-117.76-45.056-167.424-87.04z" fill="#F5AD30"/></svg>