<svg viewBox="0 0 1024 1024" xmlns="http://www.w3.org/2000/svg" width="128" height="128"><path d="M411.27 607.65c-17.973-7.505-41.188.229-52.264 17.542-11.223 17.395-5.955 38.104 11.87 46.202 18.11 8.232 42.133.417 53.343-17.422 11.035-18.028 5.228-38.602-12.948-46.322zm44.275-18.298c-6.885-2.721-15.508.58-19.55 7.33-3.92 6.79-1.752 14.525 5.147 17.368 7.02 2.883 16.007-.458 20.049-7.37 3.88-6.94 1.36-14.768-5.646-17.328z" fill="#d81e06"/><path d="M427.52 469.315c-115.968 11.44-203.924 82.217-196.379 158.074 7.532 75.91 107.655 128.161 223.65 116.75 115.995-11.44 203.924-82.217 196.392-158.142-7.518-75.856-107.641-128.107-223.663-116.682zM529.3 648.3c-23.673 53.356-91.77 81.799-149.53 63.232-55.755-17.934-79.374-72.812-54.946-122.247 23.956-48.465 86.352-75.87 141.54-61.561 57.143 14.713 86.3 68.42 62.936 120.576z" fill="#d81e06"/><path d="M512 0C229.241 0 0 229.228 0 512c0 282.759 229.241 512 512 512 282.772 0 512-229.241 512-512C1024 229.228 794.772 0 512 0zm-56.468 794.974c-145.354 0-293.942-70.198-293.942-185.667 0-60.362 38.386-130.183 104.475-196.07 88.252-87.928 191.164-127.986 229.874-89.397 17.085 17.004 18.742 46.457 7.761 81.624-5.726 17.69 16.667 7.895 16.667 7.936 71.343-29.764 133.565-31.515 156.322.862 12.14 17.246 10.954 41.472-.216 69.51-5.174 12.922 1.59 14.93 11.466 17.88 40.179 12.423 84.925 42.456 84.925 95.38-.027 87.606-126.774 197.942-317.332 197.942zm263.14-367.171c4.717-14.457 1.766-30.963-9.202-43.062-10.954-12.072-27.136-16.667-42.038-13.528v-.026c-12.463 2.694-24.724-5.269-27.392-17.664-2.667-12.464 5.282-24.698 17.745-27.339 30.532-6.467 63.596 2.938 85.99 27.716 22.446 24.764 28.456 58.49 18.849 88.064-3.907 12.1-16.936 18.728-29.063 14.848-12.14-3.921-18.782-16.923-14.875-28.996h-.013zm134.59 43.331c-.014.014-.014.081-.014.108-4.568 14.026-19.712 21.706-33.779 17.166-14.133-4.555-21.854-19.591-17.3-33.671v-.014c14-43.17 5.12-92.43-27.567-128.566-32.714-36.122-80.95-49.92-125.507-40.488-14.484 3.086-28.753-6.13-31.839-20.574-3.099-14.404 6.144-28.632 20.642-31.717h.027c62.626-13.272 130.52 6.117 176.546 56.966 46.012 50.77 58.422 120.037 38.79 180.79z" fill="#d81e06"/></svg>