<svg viewBox="0 0 1152 1024" xmlns="http://www.w3.org/2000/svg" width="225" height="200"><path d="M170.667 661.333h810.666c12.8 0 21.334 8.534 21.334 21.334V832c0 10.667-8.534 21.333-21.334 21.333-10.666 0-21.333 8.534-21.333 21.334V896c0 12.8-8.533 21.333-21.333 21.333H213.333C202.667 917.333 192 908.8 192 896v-21.333c0-10.667-10.667-21.334-21.333-21.334-12.8 0-21.334-8.533-21.334-21.333V682.667c0-12.8 8.534-21.334 21.334-21.334zm0-554.666h810.666c12.8 0 21.334 8.533 21.334 21.333v149.333c0 10.667-8.534 21.334-21.334 21.334C970.667 298.667 960 307.2 960 320c0 10.667-8.533 21.333-21.333 21.333H213.333C202.667 341.333 192 332.8 192 320v-2.133c0-10.667-10.667-21.334-21.333-21.334-12.8 0-21.334-8.533-21.334-21.333V128c0-12.8 8.534-21.333 21.334-21.333zm0 277.333h810.666c12.8 0 21.334 8.533 21.334 21.333v149.334c0 10.666-8.534 21.333-21.334 21.333-10.666 0-21.333 8.533-21.333 21.333 0 10.667-8.533 21.334-21.333 21.334H213.333c-10.666 0-21.333-8.534-21.333-21.334V595.2c0-10.667-10.667-21.333-21.333-21.333-12.8 0-21.334-8.534-21.334-21.334V403.2c0-10.667 8.534-19.2 21.334-19.2zm64 320c-12.8 0-21.334 8.533-21.334 21.333V768c0 12.8 8.534 21.333 21.334 21.333h234.666c12.8 0 21.334-8.533 21.334-21.333v-42.667c0-12.8-8.534-21.333-21.334-21.333H234.667zm0-554.667c-12.8 0-21.334 8.534-21.334 21.334v42.666c0 12.8 8.534 21.334 21.334 21.334h234.666c12.8 0 21.334-8.534 21.334-21.334v-42.666c0-12.8-8.534-21.334-21.334-21.334H234.667zm0 277.334c-12.8 0-21.334 8.533-21.334 21.333v42.667c0 12.8 8.534 21.333 21.334 21.333h234.666c12.8 0 21.334-8.533 21.334-21.333V448c0-12.8-8.534-21.333-21.334-21.333H234.667zM661.333 704c-12.8 0-21.333 8.533-21.333 21.333V768c0 12.8 8.533 21.333 21.333 21.333S682.667 780.8 682.667 768v-42.667c0-12.8-8.534-21.333-21.334-21.333zm0-554.667c-12.8 0-21.333 8.534-21.333 21.334v42.666c0 12.8 8.533 21.334 21.333 21.334s21.334-8.534 21.334-21.334v-42.666c0-12.8-8.534-21.334-21.334-21.334zM746.667 704c-12.8 0-21.334 8.533-21.334 21.333V768c0 12.8 8.534 21.333 21.334 21.333S768 780.8 768 768v-42.667c0-12.8-8.533-21.333-21.333-21.333zm0-554.667c-12.8 0-21.334 8.534-21.334 21.334v42.666c0 12.8 8.534 21.334 21.334 21.334S768 226.133 768 213.333v-42.666c0-12.8-8.533-21.334-21.333-21.334zM832 704c-12.8 0-21.333 8.533-21.333 21.333V768c0 12.8 8.533 21.333 21.333 21.333S853.333 780.8 853.333 768v-42.667c0-12.8-8.533-21.333-21.333-21.333zm0-554.667c-12.8 0-21.333 8.534-21.333 21.334v42.666c0 12.8 8.533 21.334 21.333 21.334s21.333-8.534 21.333-21.334v-42.666c0-12.8-8.533-21.334-21.333-21.334zM917.333 704c-12.8 0-21.333 8.533-21.333 21.333V768c0 12.8 8.533 21.333 21.333 21.333S938.667 780.8 938.667 768v-42.667c0-12.8-8.534-21.333-21.334-21.333zm0-554.667c-12.8 0-21.333 8.534-21.333 21.334v42.666c0 12.8 8.533 21.334 21.333 21.334s21.334-8.534 21.334-21.334v-42.666c0-12.8-8.534-21.334-21.334-21.334zm-256 277.334C648.533 426.667 640 435.2 640 448v42.667c0 12.8 8.533 21.333 21.333 21.333s21.334-8.533 21.334-21.333V448c0-12.8-8.534-21.333-21.334-21.333zm85.334 0c-12.8 0-21.334 8.533-21.334 21.333v42.667c0 12.8 8.534 21.333 21.334 21.333S768 503.467 768 490.667V448c0-12.8-8.533-21.333-21.333-21.333zm85.333 0c-12.8 0-21.333 8.533-21.333 21.333v42.667c0 12.8 8.533 21.333 21.333 21.333s21.333-8.533 21.333-21.333V448c0-12.8-8.533-21.333-21.333-21.333zm85.333 0C904.533 426.667 896 435.2 896 448v42.667c0 12.8 8.533 21.333 21.333 21.333s21.334-8.533 21.334-21.333V448c0-12.8-8.534-21.333-21.334-21.333z" fill="#0FBF73"/><path d="M241.067 170.667h221.866c4.267 0 6.4 2.133 6.4 6.4v29.866c0 4.267-2.133 6.4-6.4 6.4H241.067c-4.267 0-6.4-2.133-6.4-6.4v-29.866c0-4.267 2.133-6.4 6.4-6.4zm0 277.333h115.2c4.266 0 6.4 2.133 6.4 6.4v29.867c0 4.266-2.134 6.4-6.4 6.4h-115.2c-4.267 0-6.4-2.134-6.4-6.4V454.4c0-4.267 2.133-6.4 6.4-6.4zm0 277.333h179.2c4.266 0 6.4 2.134 6.4 6.4V761.6c0 4.267-2.134 6.4-6.4 6.4h-179.2c-4.267 0-6.4-2.133-6.4-6.4v-29.867c0-4.266 2.133-6.4 6.4-6.4z" fill="#5BFF85"/></svg>